<svg width="345.6" height="345.6" xmlns="http://www.w3.org/2000/svg">
    <g style="display:inline;stroke-width:.995595">
        <path style="display:inline;fill:#0f0f0f;stroke-width:2.00573;stroke-linecap:round;stroke-linejoin:round" d="M172.66 24.205c-4.604.002-8.173.02-12.738.025H82.279a64 64 0 0 0-3.513.395c-.182.01-2.092.013-2.17.023a62.562 62.562 0 0 0-4.518.732 64 64 0 0 0-42.51 27.2 51.431 51.431 0 0 0-2.587 4.115 64 64 0 0 0-6.03 14.243c-1.337 3.08-2.056 4.894-2.396 14.828a64 64 0 0 0-.277 2.464v22.4c-.054 14.31-.057 33.212-.057 62.797 0 24.507.033 34.802.057 48.556v39.637a64 64 0 0 0 .167 1.485c.062 3.328.14 5.066.239 5.527.334 1.56.523 2.306.761 3.347A64 64 0 0 0 82.28 325.62h183.167a64 64 0 0 0 60.405-42.992c.838-2.159 1.43-4.105 1.707-5.71a64 64 0 0 0 1.888-15.299V181.44c.006-2.632.015-2.222.021-5.022.126-54.106.131-76.724-.02-86.142V88.23a64 64 0 0 0-.513-7.733c.005-.058-.008-.187 0-.234.206-1.216-.381-3.825-1.235-6.802a64 64 0 0 0-62.253-49.231H191.98c-6.858-.004-12.3-.027-19.32-.025zm1.541 10.53c46.513.044 93.14.357 96.396.9 25.736 4.29 43.967 23.534 47.587 50.23.541 3.99.513 173.455-.03 177.451-1.879 13.853-6.769 24.533-15.594 34.06-9.198 9.93-19.93 15.111-35.767 17.27v.002c-5.2.709-182.411.7-187.162-.01-23.7-3.539-43.703-22.158-48.203-44.87-1.694-8.554-1.601-3.035-1.598-95.282.003-92.475-.07-88.517 1.736-96.421C36.28 57.42 54.342 39.45 73.48 36.365a213.85 213.85 0 0 0 5.022-.907c2.79-.537 49.187-.765 95.7-.722zm-.816 2.692c-45.711.063-91.407.251-93.323.505-25.194 3.34-42.052 19.848-46.585 45.621-.912 5.186-.99 175.277-.082 180.593 4.078 23.896 20.577 42.082 42.337 46.665 1.143.24 2.623.568 3.29.728.667.16 2.303.305 3.637.324 1.334.02 3.283.148 4.33.286 2.901.385 172.414.409 175.209.025 1.29-.177 4.149-.552 6.354-.834 17.58-2.243 31.991-12.228 40.292-27.92 2.943-5.563 5.162-12.901 6.43-21.268.474-3.123.82-165.502.366-171.468-1.276-16.764-6.522-28.353-17.55-38.77-8.972-8.473-17.943-12.554-31.295-14.237-1.973-.249-47.698-.312-93.41-.25zm46.621 22.422a112.88 112.88 0 0 1 16.128 1.07c7.129.994 9.193 1.466 14.624 3.334 20.639 7.097 34.446 19.532 39.863 35.901.952 2.875 1.229 3.977 2.176 8.64 1.404 6.911 1.14 15.612-.723 23.76-1.967 8.606-3.198 11.998-7.086 19.508-3.277 6.332-7.166 11.735-18.064 25.108-3.234 3.968-3.235 4.14-.03 5.54 22.741 9.941 33.81 35.048 25.004 56.722-4.746 11.684-13.05 22.727-21.43 28.498-9.389 6.466-16.549 8.809-31.562 10.328-3.347.339-31.07.503-31.4.187-.09-.086-2.572-.313-5.515-.503-18.13-1.175-30.04-5.137-46.672-15.526-5.854-3.657-4.888-3.549-10.178-1.14-12.355 5.626-18.561 7.137-29.396 7.157-48.166.09-78.366-49.852-55.44-91.683 7.77-14.18 17.44-23.631 30.685-29.994 17.868-8.583 37.003-9.02 58.463-1.336 4.553 1.63 4.478 1.691 2.523-2.122-3.116-6.076-3.583-10.034-1.929-16.373 1.334-5.114 1.342-7.389.038-11.498-1.845-5.818-1.89-6.1-1.668-10.393.94-18.141 18.825-34.352 46.234-41.91 7.699-2.122 16.423-3.228 25.355-3.275zm1.231 2.943c-8.63.008-10.618.18-19.054 1.665-33.415 5.883-56.155 28.537-49.345 49.156 2.003 6.064 2.052 7.265.529 12.987-2.558 9.613-.067 16.47 8.467 23.3 5.84 4.675 3.714 6.18-3.716 2.633-9.223-4.405-14.596-6.275-23.492-8.176-35.01-7.482-71.109 15.85-77.754 50.255a468.94 468.94 0 0 1-.76 3.821c-.523 2.552-.511 14.33.016 16.865.228 1.097.581 2.816.782 3.821 2.647 13.217 11.033 25.998 22.522 34.32 20.001 14.487 42.311 16.014 65.688 4.494 5.062-2.494 4.966-2.503 10.152.85 18.942 12.245 30.46 15.662 55.572 16.481 10.316.337 26.672.167 30.515-.318 11.135-1.405 15.769-2.766 23.11-6.787 15.692-8.593 29.314-32.116 27.302-47.145-2.262-16.908-11.185-28.72-27.159-35.947-5.772-2.611-5.77-2.93.125-10.145 16.843-20.614 21.528-29.081 24.728-44.694 1.623-7.921 1.22-18.995-.975-26.778-5.259-18.645-22.97-33.343-46.465-38.559-6.643-1.474-12.905-2.106-20.788-2.099zm.67 12.028c4.149 0 8.237.13 9.896.389 9.259 1.44 11.427 1.927 16.631 3.74 13.295 4.631 21.308 12.245 26.527 25.207 2.412 5.99 3.495 14.312 2.59 19.897-2.165 13.373-5.718 19.952-23.499 43.5-12.541 16.612-15.44 23.188-16.351 37.111-.787 12.016-1.184 14.409-2.929 17.733-3.576 6.81-10 10.008-20.117 10.011-10.175.003-17.32-3.023-36.377-15.408-22.416-14.569-29.107-18.425-39.002-22.475-5.997-2.454-9.008-3.412-12.358-3.929-1.381-.213-3.586-.558-4.897-.766-2.401-.381-4.609-.21-10.26.795-17.06 3.03-25.61 22.72-14.736 33.934 2.19 2.257 3.277 2.914 12.311 7.421 12.653 6.312 25.238 13.525 25.541 14.64.616 2.256-4.742 4.855-13.09 6.35-2.357.422-9.039.449-10.893.043a101.8 101.8 0 0 0-3.637-.676c-23.896-4.034-41.347-27.392-37.974-50.83 2.23-15.497 11.766-30.63 24.29-38.545 8.812-5.57 17.304-7.977 28.131-7.977 4.338 0 5.566.118 10.67 1.034 12.181 2.187 25.271 9.282 50.939 27.608 6.394 4.566 5.97 3.912 6.208 9.572.292 6.918 1.913 9.305 6.32 9.305 5.25 0 7.525-4.036 5.94-10.537-.584-2.394-.584-2.393.986-5.648.863-1.79 2.225-5.22 3.026-7.622 1.486-4.461 3.189-7.697 6.834-12.983 1.035-1.5 2.255-3.541 2.713-4.533.985-2.136 1.421-2.454 7.284-5.304 21.299-10.354 36.032-27.146 31.543-35.948-2.918-5.72-8.158-4.561-10.59 2.34-3.682 10.45-24.806 23.984-41.98 26.897-11.032 1.872-19.129-.095-27.07-6.578-2.093-1.708-3.713-2.73-5.134-3.24-5.402-1.939-6.237-5.393-3.161-13.107 1.78-4.467 1.584-7.557-.888-13.875-4.063-10.383 1.975-20.266 17.5-28.64 7.998-4.315 16.661-6.877 28.808-8.523 1.898-.257 6.107-.385 10.255-.383zm-2.573 2.813c-28.628.756-57.286 17.76-51.74 31.993 2.672 6.858 2.849 7.529 2.869 10.83.015 2.4-.157 3.676-.694 5.152-3.067 8.441-2.945 9.189 1.86 11.42 1.88.872 3.822 2.156 5.748 3.798 7.653 6.521 18.378 7.653 31.795 3.359 12.332-3.948 29.308-15.981 31.172-22.098 2.695-8.843 9.68-11.46 15.115-5.663 9.147 9.76-5.838 29.439-32.143 42.216-4.504 2.187-4.503 2.187-5.543 4.19-.571 1.102-1.933 3.278-3.025 4.835-2.525 3.598-5.164 8.917-6.289 12.679-.482 1.61-1.46 4.152-2.172 5.648-1.388 2.916-1.48 3.742-.977 8.746 1.156 11.481-13.84 15.252-18.218 4.582-.676-1.647-.812-2.607-.836-5.902-.031-4.437.158-4.123-4.34-7.192a568.707 568.707 0 0 1-5.89-4.12c-29.008-20.53-44.494-26.333-62.88-23.553-19.545 2.954-35.807 19.273-40.157 40.296-1.461 7.065-1.576 9.443-.693 14.348 3.41 18.95 17.938 33.309 37.04 36.607 7.622 1.316 20.118-.284 20.881-2.675.226-.71-10.854-7.05-21.921-12.543-3.24-1.608-6.746-3.378-7.794-3.934-19.74-10.485-12.609-38.144 11.084-42.997 15.415-3.157 28.943 1.826 61.842 22.777 28.766 18.32 34.784 20.781 46.077 18.844 10.891-1.867 13.513-5.65 14.755-21.29.99-12.458 1.161-13.423 3.508-19.87 2.32-6.374 6.77-13.299 16.38-25.489 16.881-21.413 22.565-35.654 19.933-49.955-4.023-21.865-20.282-33.46-49.031-34.968a72.553 72.553 0 0 0-5.716-.071zm-1.085 22.01c.6.048 1.2.162 1.793.35 8.95 2.852 7.377 17.527-2.419 22.563-3.991 2.052-9.517 1.157-11.98-1.941-5.787-7.277 3.597-21.688 12.606-20.972zm-.755 2.848c-2.86.061-6.312 2.364-8.68 6.875-2.826 5.383-2.155 9.575 1.747 10.91 5.867 2.007 12.063-3.748 12.063-11.208 0-4.46-2.27-6.64-5.13-6.577zm-45.796 55.092c.673-.096 1.681.114 2.907.708 5.505 2.665 10.118 3.706 18.953 4.277 3.719.24 4.641.614 4.641 1.88 0 1.1-4.08 9.083-4.842 9.474-1.1.565-1.615.397-3.884-1.261a99.895 99.895 0 0 0-3.919-2.714c-5.746-3.702-13.126-8.87-13.863-9.711-1.302-1.484-1.114-2.493.006-2.653zm81.767 37.34c.839.078 1.927.378 3.351.809 10.94 3.308 18.414 11.206 20.558 21.726 2.073 10.173-1.323 21.182-9.558 30.997-7.158 8.531-13.58 11.79-28.043 14.224-1.383.233-7.935.414-16.975.469-15.333.093-15.972.078-20.788-.503-19.483-2.352-23.339-3.902-46.165-18.565-25.234-16.209-31.79-19.944-42.352-24.127-8.8-3.486-10.09-6.35-5.574-12.378 7.78-10.387 25.11-5.756 55.147 14.739 27.094 18.485 37.392 23.064 51.855 23.054 16.242-.01 29.59-8.697 33.441-21.762 1.367-4.635 1.553-6.503 2.096-21.047.228-6.123.489-7.872 3.007-7.636zm1.471 3.301c-1.373-.171-1.283 1.547-1.655 10.428-.966 23.018-9.114 34.333-27.713 38.48-18.322 4.087-30.347.115-60.975-20.137-21.606-14.287-28.574-18.111-38.108-20.91-7.033-2.063-14.621-.04-16.817 4.483-1.618 3.333-1.02 4.21 4.24 6.213 9.145 3.482 18.835 8.783 34.577 18.917a13566.08 13566.08 0 0 0 13.511 8.687c18.635 11.953 26.485 14.614 46.076 15.605 3.62.183 6.973.377 7.45.43 3.223.36 22.301-.395 26.361-1.043 13.14-2.097 21.534-7.983 28.33-19.864 9.631-16.835 3.648-35.075-13.344-40.682-.854-.282-1.475-.55-1.933-.607z" transform="matrix(.93186 0 0 .96298 12.246 .472)"/>
    </g>
    <g style="fill:#fff72a;fill-opacity:1">
        <path style="fill:#fff72a;stroke-width:1.9;-inkscape-stroke:none;fill-opacity:1" d="M201.919 253.534c-11.301-1.265-18.655-3.074-24.836-6.108-4.894-2.401-7.37-3.945-29.576-18.442-14.27-9.316-20.119-12.646-28.887-16.447-5.69-2.467-7.781-4.09-8.112-6.291-.403-2.691 3.002-7.682 6.492-9.516 2.234-1.174 3.82-1.46 7.446-1.341 2.517.083 3.53.218 5.526.74 7.72 2.014 17.164 6.868 29.225 15.02 2.104 1.422 6.408 4.364 9.565 6.54 16.757 11.546 25.568 16.193 34.326 18.105 7 1.528 14.98 1.185 21.262-.916 10.595-3.542 17.775-11.203 19.935-21.27.587-2.736.827-5.155 1.096-11.052.384-8.45.63-12.016.877-12.771.57-1.744 1.815-1.881 5.57-.618 10.757 3.62 17.536 11.617 19.08 22.506.39 2.757.136 8.098-.517 10.863-2.659 11.253-11.253 22.553-20.343 26.749-5.011 2.312-11.734 3.93-17.81 4.287-4.204.246-28.047.217-30.32-.038zm19.98-2.305c11.668-.379 15.906-.78 20.191-1.911 8.539-2.253 14.84-6.962 20.08-15.004 3.894-5.978 5.836-11.613 6.108-17.73.484-10.862-5.056-19.74-14.99-24.023-1.064-.459-2.383-.947-2.932-1.085-1.662-.419-1.642-.5-2.105 8.372-.477 9.14-1.104 13.305-2.763 18.363-2.095 6.389-5.186 10.923-9.814 14.396-5.402 4.055-13.914 6.733-22.49 7.078-7.738.31-14.339-1.349-23.487-5.904-6.002-2.988-12.418-6.932-25.399-15.612-20.085-13.432-24.824-16.136-32.944-18.805-2.575-.845-2.96-.914-5.633-1.003-4.508-.15-7.434.704-9.631 2.809-1.174 1.125-2.271 3.243-2.271 4.387 0 1.497.765 2.036 6.117 4.308 8.933 3.79 15.982 7.904 34.585 20.182 18.151 11.98 20.386 13.321 26.568 15.946 7.957 3.379 13.285 4.24 32.839 5.307.643.035 1.264.08 1.381.1.117.02 3.082-.056 6.59-.17z"/>
        <path style="fill:#fff72a;stroke-width:1.9;-inkscape-stroke:none;fill-opacity:1" d="M202.769 253.633c-6.479-.579-15.115-2.216-19.655-3.727-6.423-2.137-10.724-4.606-29.656-17.027-19.916-13.067-24.765-15.899-34.787-20.315-5.802-2.557-7.898-4.18-8.188-6.34-.364-2.711 3.037-7.665 6.515-9.493 1.97-1.036 3.674-1.394 6.643-1.398 8.435-.01 19.313 4.873 36.057 16.189 21.908 14.804 24.49 16.451 30.637 19.538 6.99 3.51 12.07 5.02 18.634 5.538 15.365 1.214 28.634-5.885 33.75-18.058 1.851-4.4 2.326-7.815 2.888-20.766.384-8.863.561-9.463 2.792-9.455 1.873.006 7.509 2.24 10.588 4.197 4.458 2.832 8.244 7.471 10.182 12.48 1.529 3.947 1.811 5.58 1.82 10.526.007 3.799-.056 4.639-.485 6.555-1.073 4.793-3.075 9.41-5.968 13.767-4.079 6.142-8.783 10.615-13.825 13.145-4.64 2.328-12.022 4.18-18.25 4.577-3.025.193-27.659.248-29.692.067zm24.23-2.629c8.792-.375 12.067-.785 16.26-2.036 5.273-1.573 10.313-4.627 14.03-8.5 4.275-4.453 8.043-10.726 9.645-16.053 2.434-8.094 1.595-16.12-2.346-22.455-1.2-1.928-4.028-4.937-6.052-6.437-2.598-1.926-8.26-4.464-9.174-4.113-.538.206-.751 1.834-1.103 8.398-.18 3.34-.469 7.226-.643 8.636-2.069 16.705-9.321 25.76-23.702 29.588-7.609 2.025-14.961 2.246-21.459.644-4.348-1.072-7.783-2.385-12.815-4.901-6.429-3.214-11.506-6.345-25.982-16.02-15.28-10.214-20.78-13.583-26.034-15.948-3.092-1.391-6.919-2.739-8.999-3.169-3.373-.696-7.694-.282-10.284.986-2.364 1.157-4.515 4.008-4.52 5.99-.003 1.152.927 1.967 3.54 3.103 12.849 5.583 17.072 8.034 40.455 23.48 13.248 8.75 16.864 10.93 21.794 13.141 8.657 3.882 15.888 5.127 34.53 5.946 1.791.08 7.209-.039 12.86-.28z"/>
        <path style="fill:#fff72a;stroke-width:1.9;-inkscape-stroke:none;fill-opacity:1" d="M204.47 268.438c-.819-.105-3.688-.388-6.377-.629-15.668-1.401-25.83-5.007-40.576-14.396-4.47-2.847-4.951-3.086-5.984-2.975-.474.05-2.53.86-4.57 1.797-11.959 5.499-18.08 6.902-28.681 6.575-11.241-.347-21.3-3.459-30.288-9.37-14.072-9.255-23.341-23.875-26.154-41.251-.464-2.867-.653-11.44-.322-14.604.78-7.457 2.623-13.816 6.052-20.891 8.34-17.209 21.244-28.846 38.048-34.313 5.992-1.949 10.622-2.744 17.021-2.923 9.13-.255 16.624.995 27.022 4.508 2.587.874 4.859 1.59 5.048 1.59.57 0 .401-.667-.816-3.227-2.25-4.736-2.927-7.916-2.476-11.64.138-1.14.348-2.422.465-2.849l.215-.776h2.792l-.122.585c-.068.321-.24 1.668-.385 2.992-.742 6.824 1.612 12.008 8.04 17.709 3.468 3.076 4.39 4.46 3.173 4.765-.84.21-2.97-.465-6.155-1.951-8.143-3.801-12.77-5.542-18.522-6.97-6.966-1.729-10.585-2.145-17.203-1.977-4.676.119-7.34.417-11.066 1.238-8.499 1.874-16.761 5.695-24.017 11.108-3.525 2.63-9.792 8.924-12.449 12.503-4.274 5.758-7.458 12.018-9.444 18.57-3.649 12.038-3.546 25.197.283 36.436 4.109 12.06 12.485 22.484 23.788 29.602 7.22 4.547 14.51 7.215 22.583 8.264 2.762.358 9.746.304 12.654-.1 6.94-.962 13.141-2.934 20.954-6.664 2.06-.983 4.083-1.843 4.497-1.91 1.035-.168 2.248.428 6.636 3.261 16.857 10.884 26.536 13.92 47.695 14.962 5.895.29 29.054.137 31.691-.21 11.29-1.482 18.317-4.05 25.168-9.194 8.316-6.244 16.098-17.514 19.64-28.446 1.547-4.775 1.836-6.552 1.83-11.265-.003-3.675-.068-4.446-.57-6.802-1.982-9.283-5.659-16.189-11.772-22.104-3.632-3.515-6.795-5.68-12.539-8.583-3.818-1.93-4.328-2.341-4.328-3.49 0-1.076.783-2.281 5.046-7.767 14.39-18.513 18.465-25.956 21.492-39.248.36-1.578.717-3.42.796-4.092l.143-1.222h2.863l-.402 2.285c-.904 5.12-2.438 10.744-4.018 14.719-3.563 8.97-6.612 13.74-19.54 30.582-2.375 3.093-2.785 3.854-2.409 4.468.115.186 1.526 1.033 3.136 1.881 5.126 2.7 8.723 5.266 12.058 8.601 5.455 5.455 9.326 12.095 11.348 19.463 2.188 7.977 1.993 16.212-.566 23.903-2.103 6.322-6.517 14.346-10.96 19.925-2 2.512-6.22 6.804-8.253 8.393-8.167 6.385-15.26 9.108-28.024 10.758-3.118.403-4.732.45-17.567.516-7.774.04-14.804-.015-15.623-.12z"/>
        <path style="fill:#fff72a;stroke-width:1.9;-inkscape-stroke:none;fill-opacity:1" d="M203.194 268.342c-1.52-.159-4.006-.399-5.526-.533-14.998-1.33-24.933-4.864-39.746-14.14-5.233-3.278-5.597-3.444-6.81-3.12-.529.142-2.56.983-4.515 1.87-11.842 5.375-17.688 6.7-28.209 6.394-14.358-.417-26.96-5.404-37.514-14.845-8.84-7.908-15.513-19.394-18.158-31.255-1.14-5.111-1.271-6.449-1.281-13.026-.01-6.477.103-7.77 1.092-12.532 2.079-10.011 7.435-20.837 14.609-29.528 2.054-2.488 6.503-6.884 8.901-8.795 8.376-6.674 18.934-11.212 30.12-12.948 3.061-.475 12.701-.539 16.153-.106 5.602.701 11.225 2.078 18.355 4.492 2.088.707 3.929 1.286 4.092 1.286.506 0 .334-.635-.858-3.175-2.29-4.88-2.927-7.835-2.493-11.568.138-1.185.35-2.513.47-2.952l.22-.797H154.894l-.14.691c-.346 1.715-.575 5.087-.447 6.595.391 4.645 2.515 8.62 6.756 12.644 3.76 3.567 4.811 4.683 4.955 5.256.42 1.676-1.832 1.178-8.204-1.813-8.84-4.15-16.273-6.52-24.44-7.794-3.31-.517-12.81-.513-16.219.006-11.097 1.689-21.484 6.234-30.116 13.179-2.328 1.873-7.95 7.568-9.899 10.027-7.955 10.04-12.54 22.538-12.98 35.388-.435 12.681 2.599 23.674 9.282 33.636 9.147 13.634 24.284 23.11 39.992 25.036 3.206.393 11.536.162 14.732-.409 5.69-1.015 11.429-2.895 17.43-5.71 4.634-2.173 5.65-2.594 6.27-2.598.83-.005 2.398.817 6.002 3.146 15.16 9.795 24.233 13.101 40.013 14.583 5.793.544 11.95.755 21.893.752 11.468-.004 16.732-.238 21.17-.939 7.55-1.192 13.113-3.135 18.576-6.491 11.06-6.793 21.095-21.584 24.16-35.607.384-1.763.464-2.814.469-6.164.004-3.574-.06-4.343-.56-6.695-2.246-10.569-6.638-18.183-14.08-24.41-2.632-2.203-5.615-4.104-9.862-6.286-4.237-2.176-4.697-2.538-4.697-3.693 0-1.11.785-2.291 5.955-8.97 11.51-14.87 15.801-22.081 18.883-31.732.875-2.739 2.227-8.443 2.492-10.512l.143-1.116h2.862l-.092.585c-1.837 11.614-5.47 21.061-11.815 30.728-1.736 2.644-5.206 7.333-12.377 16.723-2.083 2.727-2.445 3.428-2.075 4.018.117.186 1.628 1.084 3.357 1.995 9.407 4.955 15.715 11.211 20.081 19.917 3.191 6.364 4.526 11.958 4.54 19.023.014 7.283-1.257 12.397-4.964 19.98-3.587 7.337-7.603 13.027-12.777 18.103-2.675 2.624-4.008 3.712-7.01 5.718-6.895 4.606-13.728 6.865-25.057 8.283-3.772.472-29.837.63-33.9.205zM82.282 36.509v-1.271l.146-.03c3.234-.643 3.53-.677 6.735-.774 10.552-.322 36.291-.478 79.08-.48h25.785v2.48l-7.691.035c-4.23.02-12.247.036-17.814.036-18.235 0-55.216.142-69.37.266-7.977.069-11.726.142-12.514.243-.806.103-2.923.466-3.697.633-.339.073-.625.133-.638.133-.012 0-.022-.572-.022-1.271z"/>
        <path style="fill:#fff72a;stroke-width:1.9;-inkscape-stroke:none;fill-opacity:1" d="M82.282 36.514v-1.277l.279-.055c3.116-.617 3.446-.655 6.522-.749 10.652-.325 35.637-.477 78.55-.478h26.395v2.484l-6.974.032c-3.836.017-16.013.044-27.06.06-35.056.048-66.794.224-71.76.398-1.14.04-1.612.08-2.472.215-.892.14-2.941.516-3.36.618l-.12.03z"/>
        <path style="fill:#fff72a;stroke-width:1.9;-inkscape-stroke:none;fill-opacity:1" d="M82.282 36.509v-1.272l.279-.056c.495-.1 1.91-.368 2.51-.478.742-.134 1.733-.203 3.906-.27 10.772-.328 35.316-.477 78.709-.478h26.342v2.48l-5.19.034c-2.854.02-9.878.036-15.608.037-5.731 0-18.19.023-27.689.052-36.834.11-56.36.253-58.477.429-.707.059-2.68.375-3.967.635-.428.087-.787.158-.797.158-.01 0-.018-.572-.018-1.271z"/>
        <path style="fill:#fff72a;stroke-width:1.9;-inkscape-stroke:none;fill-opacity:1" d="M41.083 78.416c.18-.954.9-4.076 1.167-5.05 1.808-6.605 4.94-12.935 9.205-18.609 3.339-4.441 7.448-8.504 11.698-11.567 4.793-3.455 9.735-5.825 14.762-7.08 1.116-.278 1.618-.384 3.171-.664.643-.116 1.923-.354 2.843-.528 2.2-.417 2.786-.454 9.14-.59 8.415-.182 35.167-.372 52.406-.373h5.3V36.557h-3.76c-5.324 0-28.25.095-38.457.16-14.974.093-20.962.18-22 .32-1.526.205-4.2.713-5.737 1.089-5.897 1.441-11.346 3.833-16.127 7.08C54.259 52.29 47.088 63.58 44.047 77.711c-.1.468-.195.904-.21.97l-.028.12h-2.798z"/>
        <path style="fill:#fff72a;stroke-width:1.9;-inkscape-stroke:none;fill-opacity:1" d="M41.059 78.523c.073-.417.604-2.813.842-3.805 1.415-5.885 4.012-11.768 7.57-17.145 2.219-3.355 4.316-5.914 7.25-8.85 2.105-2.108 3.67-3.476 5.768-5.045 4.081-3.053 8.287-5.298 12.673-6.766 1.833-.614 3.457-1.022 5.615-1.412.638-.116 1.984-.365 2.993-.555 1.303-.246 2.063-.362 2.63-.402 3.262-.23 16.93-.423 36.545-.516l7.638-.037v2.608l-5.752.033-15.104.087c-16.31.094-22.087.18-23.322.348a64.24 64.24 0 0 0-5.797 1.119c-10.313 2.58-18.983 7.923-25.387 15.645-5.352 6.454-9.19 14.662-11.17 23.882-.107.497-.206.945-.22.996-.025.086-.14.093-1.424.093h-1.398z"/>
        <path style="fill:#fff72a;stroke-width:1.9;-inkscape-stroke:none;fill-opacity:1" d="M40.109 112.078c.066-25.518.219-30.188 1.13-34.442.351-1.642.773-3.419 1.06-4.463 1.314-4.795 3.525-9.81 6.258-14.191.865-1.388 2.088-3.18 2.837-4.158l.234-.306h3.018l-.822 1.094c-4.659 6.206-7.89 13.52-9.775 22.123-.68 3.106-.72 3.465-.821 7.443-.148 5.768-.371 28.408-.373 37.846v2.272h-2.78z"/>
        <path style="fill:#fff72a;stroke-width:1.9;-inkscape-stroke:none;fill-opacity:1" d="M40.092 116.728c.001-13.411.107-25.299.266-29.93.196-5.734.467-7.789 1.653-12.54 1.226-4.916 3.302-9.862 6.116-14.576.707-1.184 2.165-3.376 2.93-4.407l.563-.757h3.04l-.098.128c-2.236 2.94-3.427 4.77-4.933 7.574-2.24 4.171-4.16 9.36-5.314 14.35-.91 3.94-.982 4.517-1.087 8.767-.148 5.957-.37 28.597-.373 37.767v2.192h-2.763z"/>
        <path style="fill:#fff72a;stroke-width:1.9;-inkscape-stroke:none;fill-opacity:1" d="M40.092 128.843c.001-32.505.101-41.67.508-46.694.076-.936.203-2.112.27-2.484l.03-.173h2.784l-.12.687c-.226 1.302-.292 2.655-.39 7.975-.173 9.492-.372 36.377-.373 50.453 0 3.127-.015 7.03-.035 8.674l-.035 2.99h-2.64z"/>
        <path style="fill:#fff72a;stroke-width:1.9;-inkscape-stroke:none;fill-opacity:1" d="M40.092 131.18c0-23.223.045-34.385.158-40.21.059-3.047.152-6.127.19-6.31l.025-.12H43.27l-.021.2c-.028.26-.116 5.727-.183 11.357-.124 10.406-.18 19.876-.299 50.892l-.032 8.33h-2.643z"/>
        <path style="fill:#fff72a;stroke-width:1.9;-inkscape-stroke:none;fill-opacity:1" d="M40.092 147.188V111.8h2.832l-.037 6.868c-.081 14.843-.136 34.453-.137 48.833l-.002 15.077h-2.656z"/>
        <path style="fill:#fff72a;stroke-width:1.9;-inkscape-stroke:none;fill-opacity:1" d="M40.083 210.115c-.016-13.668-.016-21.447-.004-42.456l.012-20.258h2.684l.003 31.31c.002 17.221.02 33.146.042 35.39l.04 4.078h-2.768z"/>
        <path style="fill:#fff72a;stroke-width:1.9;-inkscape-stroke:none;fill-opacity:1" d="M42.83 265.404c-.476-1.525-.9-3.273-1.38-5.69-.576-2.91-.804-4.401-.902-5.907-.375-5.773-.416-9.573-.483-45.153l-.026-13.962h2.745l.035 14.28c.066 26.743.25 42.94.517 45.499.185 1.775.875 4.966 1.67 7.731.226.782.724 2.36.886 2.805a6.9 6.9 0 0 1 .15.438c0 .014-.717.025-1.595.025-1.23 0-1.6-.015-1.616-.066z"/>
        <path style="fill:#fff72a;stroke-width:1.9;-inkscape-stroke:none;fill-opacity:1" d="M48.254 277.492c-2.945-4.856-5.123-10.193-6.328-15.502-.74-3.262-1.262-6.357-1.38-8.183-.32-4.916-.396-9.501-.43-26.197-.014-6.78-.034-14.198-.044-16.485l-.02-4.158h2.736l.033 5.99.062 11.678c.056 11.178.176 21.981.291 26.25.082 3.01.159 3.946.451 5.499a63.905 63.905 0 0 0 3.73 12.485c1.097 2.634 2.733 5.83 4.165 8.135.231.373.421.692.421.71 0 .017-.795.03-1.767.03h-1.767zM89.114 250.2c-15.351-9.574-25.449-25.81-27.597-44.374-.255-2.205-.257-10.442-.004-12.625 1.026-8.816 3.727-16.925 8.286-24.87 4.184-7.293 8.564-12.826 13.839-17.483 12.015-10.606 28.098-16.266 43.86-15.433 7.572.4 13.27 1.561 22.188 4.523 2.725.905 5.05 1.609 5.166 1.564.332-.127.14-.733-1.035-3.25-2.045-4.379-2.64-6.815-2.496-10.203.085-1.99.241-2.908 1.243-7.289.35-1.528.411-2.136.408-3.982-.004-2.351-.069-2.676-1.48-7.435-.854-2.877-1.025-4.152-.91-6.793.214-4.978 1.165-8.716 3.33-13.089 2.143-4.331 5.702-8.904 9.68-12.436 7.835-6.96 17.608-12.077 29.835-15.624 12.956-3.759 28.966-4.245 44.186-1.343 8.008 1.527 19.091 6.378 26.226 11.479 4.07 2.91 8.396 6.943 11.123 10.373 4.111 5.169 7.365 11.775 8.995 18.26 2.487 9.9 2.534 18.62.155 29.157-1.42 6.288-2.806 10.295-5.46 15.78-3.381 6.987-5.853 10.668-15.995 23.822-3.172 4.114-4.035 5.445-3.865 5.965.118.363.77.772 3.55 2.231 5.036 2.643 8.11 4.865 11.73 8.478 2.656 2.649 3.973 4.25 5.883 7.148 1.335 2.025 3.576 6.455 4.396 8.69 2.948 8.029 3.446 16.602 1.432 24.6-1.872 7.43-6.965 17.028-12.66 23.858l-1.033 1.24h-3.927l.912-.975c6.802-7.27 12.559-18.105 14.568-27.417.392-1.816.409-2.068.41-6.325 0-4.788-.043-5.16-1.07-9.236-1.813-7.184-5.28-13.667-9.8-18.326-4.356-4.49-7.554-6.746-14.69-10.367-2.988-1.517-3.597-2.024-3.596-2.997 0-1.228.353-1.756 6.556-9.798 12.186-15.8 16.494-23.486 19.293-34.417 1.78-6.95 2.292-11.178 2.128-17.584-.22-8.598-1.61-14.957-4.613-21.107-2.486-5.09-5.266-8.916-9.677-13.315-3.406-3.398-6.525-5.83-10.662-8.314-8.542-5.13-18.352-8.353-29.101-9.561-6.041-.679-16.589-.68-21.492-.002-2.311.32-6.57 1.056-8.792 1.52-17.503 3.653-32.437 12.664-39.943 24.102-1.327 2.022-3.107 5.64-3.777 7.676-.97 2.948-1.218 4.617-1.206 8.104.012 3.465.114 4.085 1.347 8.216 1.415 4.743 1.448 5.76.347 10.496-.69 2.963-.875 4.17-.978 6.387-.3 6.473 2.03 11.003 8.74 16.99 3.227 2.877 3.895 4.303 1.997 4.258-1.13-.027-3.068-.723-6.434-2.31-7.388-3.483-11.77-5.118-17.73-6.616-2.665-.67-5.468-1.25-7.702-1.596-2.071-.32-10.77-.457-13.533-.213-11.495 1.016-23.525 6.006-32.856 13.628-1.907 1.558-7.269 6.925-8.964 8.972-7.352 8.883-11.898 19.651-13.397 31.739-.304 2.445-.35 10.435-.075 13 1.303 12.177 6.111 22.808 14.482 32.02 4.336 4.77 10.475 9.406 16.58 12.518l1.654.843-3.234.004-3.235.004z"/>
        <path style="fill:#fff72a;stroke-width:1.9;-inkscape-stroke:none;fill-opacity:1" d="M88.884 250.067c-13.623-8.52-23.366-22.868-26.572-39.131-.836-4.24-.983-5.97-.982-11.497.002-4.352.047-5.369.335-7.493 1.352-9.986 4.87-19.014 11.08-28.427 6.39-9.687 14.349-16.756 24.466-21.732 8.875-4.365 17.518-6.407 27.156-6.417 8.57-.01 14.862 1.125 25.368 4.574 2.752.903 5.069 1.602 5.148 1.553.274-.17.139-.585-.998-3.066-2.136-4.658-2.706-6.964-2.567-10.382.054-1.315.214-2.636.457-3.757l.782-3.607c.317-1.463.408-2.294.413-3.757.007-2.123-.104-2.762-1.026-5.937-1.393-4.796-1.347-4.541-1.338-7.514.015-5.23.933-9.17 3.22-13.827 1.93-3.934 4.474-7.415 7.96-10.898 7.345-7.336 18.09-13.334 30.514-17.032 13.237-3.94 27.941-4.608 43.51-1.975 4.164.704 6.75 1.41 11.121 3.032 9.689 3.595 17.598 8.43 23.881 14.597 4.22 4.143 7.027 7.988 9.583 13.126 3.882 7.804 5.913 17.976 5.392 27.001-.294 5.093-.809 8.376-2.183 13.93-1.348 5.452-2.492 8.597-5.026 13.827-3.212 6.629-5.744 10.44-14.58 21.943-3.844 5.005-5.009 6.632-5.19 7.252-.148.506.478 1.042 2.4 2.057 6.341 3.348 9.018 5.244 12.939 9.164 3.748 3.748 6.052 6.951 8.334 11.585 3.336 6.776 4.675 12.851 4.457 20.215-.198 6.668-1.68 12.032-5.347 19.352-2.442 4.875-6.57 11.156-9.085 13.825l-.46.488h-3.855l1.445-1.615c6.383-7.14 11.518-16.71 13.673-25.487.71-2.895.873-4.729.777-8.789-.072-3.034-.13-3.65-.538-5.59-.915-4.363-1.98-7.52-3.779-11.196-2.139-4.374-3.932-6.87-7.51-10.455-3.86-3.87-6.766-5.896-13.244-9.237-1.84-.95-3.277-1.792-3.592-2.107-.464-.463-.525-.613-.516-1.264.015-1.011.782-2.239 3.996-6.395 11.426-14.775 15.603-21.143 18.842-28.722 1.907-4.462 3.853-11.57 4.647-16.967 1.073-7.299.468-17-1.482-23.776-1.667-5.794-4.718-11.542-8.627-16.256-4.312-5.2-9.739-9.723-15.799-13.167-7.965-4.528-17.723-7.593-27.738-8.713-6.273-.702-16.99-.636-22.244.136-3.38.496-7.21 1.192-9.618 1.746-20.777 4.783-37.28 17.093-41.995 31.324-1.03 3.11-1.254 4.524-1.262 7.966-.01 3.493.119 4.322 1.255 8.148 1.536 5.175 1.552 5.998.227 11.766-.695 3.026-.965 6.14-.72 8.314.57 5.07 2.952 8.948 8.586 13.989 3.312 2.962 4.002 4.4 2.09 4.355-1.078-.026-3.011-.702-5.98-2.09-6.995-3.27-10.262-4.57-14.883-5.924-4.802-1.406-9.797-2.425-13.297-2.711-2.407-.197-8.906-.192-11.301.009-7.573.635-16.258 3.352-23.478 7.344-6.036 3.338-10.635 6.982-15.822 12.535-4.44 4.753-7.319 8.943-10.114 14.718-3.045 6.29-5.045 13.3-5.799 20.324-.276 2.578-.23 10.536.075 13.075.825 6.853 2.865 13.572 5.806 19.13 5.613 10.603 13.966 18.852 24.863 24.554l1.954 1.022-3.245.003-3.245.003z"/>
        <path style="fill:#fff72a;stroke-width:1.9;-inkscape-stroke:none;fill-opacity:1" d="M88.962 250.118c-3.763-2.341-6.728-4.725-10.217-8.214-8.376-8.373-13.962-18.822-16.362-30.605-.91-4.466-1.048-6.035-1.048-11.86 0-5.644.11-6.922.974-11.368 1.422-7.31 4.193-14.327 8.474-21.46 5.9-9.827 12.951-17.046 21.797-22.312 10.928-6.506 22.988-9.566 35.053-8.893 7.495.418 12.906 1.52 21.87 4.457 2.625.86 4.949 1.563 5.164 1.563.352 0 .382-.043.292-.414-.055-.227-.574-1.452-1.154-2.723-2.062-4.524-2.626-6.863-2.484-10.315.05-1.22.21-2.671.384-3.456 1.127-5.114 1.217-5.68 1.215-7.665-.002-2.246-.134-2.969-1.212-6.665-1.227-4.209-1.369-5.5-1.031-9.417 1.011-11.74 8.87-22.52 22.385-30.711 8.162-4.946 19.118-8.964 28.954-10.617 9.2-1.547 19.689-1.678 29.51-.368 5.433.724 8.48 1.366 12.144 2.56 15.758 5.132 27.931 13.969 34.736 25.215 3.343 5.526 5.398 11.257 6.687 18.656 1.4 8.034.958 16.043-1.418 25.7-1.467 5.96-2.808 9.557-5.72 15.34-2.929 5.815-5.54 9.695-13.558 20.147-4.358 5.68-5.235 6.9-5.492 7.639-.159.454-.139.523.264.9.24.224 1.372.904 2.516 1.51 5.65 3 8.439 4.964 12.053 8.486 2.45 2.388 4.076 4.333 5.887 7.043 2.997 4.486 5.252 9.692 6.371 14.712.627 2.813.847 4.652.942 7.877.221 7.575-1.152 13.432-4.973 21.201-2.58 5.245-5.877 10.416-8.871 13.914l-.998 1.164h-3.927l1.122-1.24c5.666-6.26 10.337-14.286 12.966-22.275 1.447-4.398 1.864-6.911 1.869-11.246.004-3.946-.389-6.599-1.596-10.777-1.512-5.231-4.143-10.43-7.243-14.315-1.239-1.551-3.657-4.048-5.232-5.402-3.068-2.638-5.767-4.377-11.025-7.105-3.16-1.638-3.976-2.22-4.136-2.947-.252-1.148.296-2.016 5.785-9.157 8.668-11.279 12.335-16.723 15.386-22.845 2.225-4.462 3.57-8.176 4.897-13.526 1.835-7.398 2.33-13.73 1.654-21.191-.907-10.026-4.07-18.002-10.127-25.544-1.795-2.237-5.084-5.57-7.346-7.448-9.004-7.474-20.633-12.435-33.617-14.341-3.133-.46-4.842-.602-9.367-.776-4.353-.168-11.445-.007-14.079.32-1.777.22-7.063 1.112-9.318 1.572-10.018 2.044-20.023 6.234-27.548 11.537-3.574 2.519-7.35 5.94-9.908 8.98-3.368 4.001-5.946 8.929-7.155 13.676-.384 1.511-.401 1.744-.401 5.486 0 4.32-.055 3.945 1.21 8.357.441 1.539.883 3.26.982 3.826.28 1.606.085 3.81-.595 6.754-.985 4.266-1.252 7.018-.923 9.543.641 4.93 2.92 8.608 8.445 13.634 2.403 2.186 3.376 3.395 3.223 4.005-.267 1.065-2.39.524-7.783-1.984-3.972-1.847-5.422-2.48-7.79-3.405-5.358-2.09-11.516-3.745-17.059-4.586-2.714-.411-9.826-.577-13.3-.31-10.727.824-22.329 5.297-31.334 12.08-3.637 2.739-8.741 7.752-11.888 11.677-1.252 1.562-3.828 5.39-4.905 7.29-3.727 6.574-6.139 13.733-7.426 22.043-.319 2.056-.46 11.202-.217 13.958.637 7.209 3.054 15.07 6.549 21.3 5.651 10.073 13.731 17.858 24.28 23.396l1.87.98-3.243.004-3.243.003z"/>
        <path style="fill:#fff72a;stroke-width:1.9;-inkscape-stroke:none;fill-opacity:1" d="M88.653 249.951c-10.585-6.824-18.556-16.568-23.249-28.42-3.366-8.5-4.687-17.391-4.008-26.977.501-7.078 2.746-15.066 6.21-22.093 5.713-11.59 13.194-20.434 22.495-26.591 8.65-5.727 18.026-9.142 28.154-10.253 3.046-.334 9.366-.336 12.651-.003 6.145.622 10.712 1.667 18.914 4.327 2.302.747 4.425 1.397 4.718 1.445.521.084.53.077.428-.332-.057-.23-.58-1.47-1.162-2.755-2.076-4.589-2.62-6.83-2.486-10.25.084-2.125.187-2.759 1.157-7.063.402-1.783.558-5.098.309-6.557-.097-.568-.553-2.349-1.014-3.958-1.011-3.533-1.24-4.75-1.245-6.618-.032-11.6 6.07-22.097 17.847-30.7 9.49-6.933 23.21-12.303 35.951-14.072 5.061-.702 7.18-.833 13.451-.831 6.416.001 8.796.15 14.31.897 6.738.912 10.311 1.83 16.35 4.202 5.636 2.213 9.823 4.388 14.353 7.457 11.17 7.566 18.342 17.622 21.32 29.89 2.568 10.573 2.38 19.422-.663 31.446-1.313 5.189-2.614 8.618-5.346 14.093-3.074 6.161-5.308 9.499-13.679 20.44-5.834 7.625-6.067 8.02-5.118 8.696.232.165 1.63.954 3.106 1.753 5.353 2.898 7.739 4.609 11.407 8.182 3.707 3.611 6.276 7.119 8.575 11.706 1.599 3.19 2.534 5.656 3.33 8.78.992 3.894 1.338 7.193 1.215 11.607-.11 3.953-.526 6.708-1.547 10.22-1.432 4.93-5.247 12.596-8.89 17.867-1.337 1.932-3.156 4.299-3.913 5.09l-.54.563h-3.875l1.21-1.347c6.092-6.787 11.048-15.657 13.462-24.091 1.084-3.787 1.202-4.71 1.198-9.354-.004-4.451-.083-5.131-1.044-8.96-2.24-8.93-6.616-16.126-13.187-21.688-3.012-2.55-5.742-4.297-10.929-6.992-3.166-1.646-3.864-2.179-4.007-3.06-.14-.868.537-2.044 3.175-5.515 10.632-13.99 13.03-17.373 16.078-22.678 2.924-5.09 4.802-9.622 6.389-15.422.82-2.996 1.746-7.637 2.025-10.144.6-5.4.409-11.735-.523-17.284-1.385-8.257-4.884-15.654-10.47-22.133-8.04-9.327-19.216-15.913-32.578-19.198-7.173-1.764-11.936-2.272-21.269-2.27-7.555.001-9.48.17-16.607 1.459-18.378 3.321-34.002 12.253-42.13 24.085-1.349 1.964-3.446 6.16-4.146 8.297-.97 2.959-1.067 3.698-1.057 7.956.01 4.29-.087 3.712 1.589 9.469.614 2.111.634 2.247.638 4.358.004 2.023-.04 2.374-.615 4.885-.716 3.128-.89 4.21-1.029 6.387-.187 2.936.35 5.65 1.651 8.342 1.382 2.858 3.158 5.044 6.806 8.372 2.458 2.242 3.447 3.468 3.293 4.08-.268 1.07-2.338.546-7.758-1.968-7.433-3.447-11.594-4.995-17.26-6.42-6.792-1.708-10.705-2.149-17.684-1.99-5.376.12-9.406.725-14.313 2.147-6.315 1.829-11.9 4.422-17.474 8.114-3.937 2.608-7.141 5.38-11.25 9.734-3.186 3.375-5.2 6.012-7.557 9.896-4.588 7.56-7.748 17.299-8.413 25.927-.267 3.464-.093 11.333.308 13.948 1.538 10.035 5.417 18.917 11.682 26.752 1.623 2.03 5.149 5.666 7.255 7.482 3.46 2.985 7.255 5.54 11.756 7.919l1.705.9-3.306-.004-3.307-.004z"/>
        <path style="fill:#fff72a;stroke-width:1.9;-inkscape-stroke:none;fill-opacity:1" d="M116.504 244.217c-1.866-.26-6.35-1.19-8.258-1.713-4.954-1.358-10.465-4.197-14.689-7.567-2.079-1.659-5.375-4.942-7.061-7.035-7.772-9.644-11.264-21.77-9.625-33.423 2.098-14.91 10.693-29.036 22.473-36.93 6.493-4.353 13.498-6.857 21.116-7.549 2.199-.2 8.674-.202 10.445-.004 1.894.212 5.232.83 7.364 1.362 10.447 2.61 22.667 9.687 44.471 25.757 3.954 2.914 5.214 4.026 5.57 4.918.165.412.323 1.62.464 3.56.261 3.592.45 5.024.826 6.238.54 1.749 1.648 2.967 3.092 3.4.391.117 1.256.161 2.401.122 1.586-.053 1.88-.107 2.575-.467 2.804-1.455 3.612-4.508 2.592-9.793-.178-.921-.277-1.86-.226-2.133.05-.269.595-1.674 1.21-3.123.614-1.45 1.561-3.87 2.104-5.381 2.25-6.264 3.197-8.255 6.286-13.198 1.108-1.774 2.403-3.935 2.878-4.803 1.613-2.948 1.508-2.862 6.947-5.74 2.05-1.084 4.639-2.513 5.755-3.175 13.688-8.128 23.69-19.134 24.5-26.962.283-2.721-.366-4.83-2.042-6.64-.978-1.058-1.737-1.412-3.015-1.409-1.14.003-2.203.53-3.096 1.538-.918 1.036-1.295 1.693-2.312 4.03-.513 1.18-1.253 2.658-1.644 3.285-4.927 7.905-17.99 16.836-30.614 20.93-7.463 2.42-14.196 3.001-19.952 1.724-4.177-.927-7.602-2.695-12.104-6.249-2.456-1.938-2.9-2.223-5.113-3.285-1.546-.742-2.096-1.094-2.788-1.786-.736-.735-.911-1.023-1.195-1.958-.276-.91-.319-1.319-.249-2.4.102-1.571.312-2.427 1.457-5.944 1.688-5.184 1.637-6.674-.442-13.059-1.16-3.56-1.418-5.019-1.311-7.381.207-4.57 2.34-8.805 6.537-12.973 5.1-5.067 13.732-10.053 21.896-12.65 5.469-1.739 13.382-3.282 18.486-3.606 3.092-.196 10.289-.196 13.36 0 2.168.138 6.728.803 9.79 1.427 8.05 1.641 15.76 5.021 20.961 9.19 1.58 1.265 3.97 3.642 5.258 5.226 3.022 3.719 5.959 9.267 7.563 14.288 1.889 5.912 2.458 13.162 1.465 18.636-1.104 6.078-2.556 10.424-5.171 15.47-2.664 5.14-5.942 10.147-14.226 21.727-10.769 15.054-13.11 18.973-15.22 25.475-1.37 4.218-1.824 7.235-2.514 16.683-.48 6.575-.766 8.858-1.375 10.95-1.346 4.626-5.034 8.802-9.367 10.606-3.12 1.299-5.797 1.736-10.599 1.73-3.006-.003-3.821-.055-5.476-.349-3.553-.63-6.395-1.602-10.38-3.55-4.85-2.37-7.778-4.166-20.29-12.446-16.383-10.842-20.559-13.443-26.6-16.57-5.05-2.612-11.922-5.472-15.53-6.463-2.088-.573-6.582-1.364-8.83-1.554-3.126-.265-8.635.549-12.162 1.796-7.1 2.513-12.548 8.666-14.297 16.15-.223.953-.281 1.794-.28 4.058 0 2.653.03 2.96.414 4.339.972 3.486 3.053 6.681 5.725 8.788 1.353 1.067 2.671 1.825 8.708 5.01 9.235 4.871 13.708 7.35 18.742 10.39 4.353 2.627 6.012 3.89 6.012 4.575 0 1.24-1.89 2.652-5.176 3.869-1.73.64-5.513 1.631-7.148 1.871-1.523.224-7.792.328-9.066.15zm6.586-2.848c3.732-.263 7.059-.877 8.796-1.622.789-.338 1.65-1.022 1.65-1.31 0-.86-8.495-5.865-21.418-12.622-6.028-3.151-7.42-3.928-8.667-4.838-3.537-2.579-6.262-6.367-7.393-10.28-.598-2.07-.742-3.48-.656-6.42.064-2.186.147-2.933.467-4.199 2.488-9.854 10.568-17.055 21.376-19.05 9.218-1.703 17.49-.034 29.514 5.955 7.409 3.69 13.617 7.404 28.073 16.792 17.767 11.539 23.515 14.816 29.415 16.769 4.738 1.569 9.58 1.594 15.406.079 5.122-1.333 7.927-4.061 9.304-9.053.756-2.742 1.14-5.589 1.818-13.465.711-8.267 1-10.124 2.127-13.666 2.537-7.975 5.349-12.786 15.299-26.176 6.241-8.399 8.14-11.146 11.024-15.946 4.735-7.884 7.705-15.367 8.585-21.632 1.084-7.712-.35-16.137-3.985-23.434-3.223-6.47-7.703-11.18-14.149-14.878-10.971-6.295-28.185-8.706-43.51-6.095-10.623 1.81-21.487 6.228-28.852 11.732-.974.729-2.687 2.24-3.805 3.36-2.765 2.77-4.228 4.954-5.21 7.78-.371 1.066-.408 1.365-.406 3.35l.002 2.179 1.22 3.392c1.84 5.117 1.769 4.764 1.76 8.782l-.006 3.456-.866 2.471c-1.87 5.333-1.913 7.05-.206 8.29.35.253 1.21.768 1.912 1.145 2.215 1.188 3.451 2.004 5.399 3.565 4.028 3.227 6.77 4.601 11.021 5.523 1.354.294 1.994.335 5.298.341 4.243.008 5.398-.13 9.476-1.125 4.468-1.09 8.464-2.655 12.908-5.053 8.461-4.566 16.441-10.88 19.323-15.288.332-.506.781-1.394 1-1.973 1.347-3.57 1.969-4.677 3.508-6.245 1.541-1.57 2.683-2.131 4.511-2.218 1.061-.051 1.504-.001 2.275.255 2.578.858 4.818 3.204 5.86 6.138.448 1.261.55 3.94.213 5.611-.993 4.931-4.356 10.305-9.918 15.85-5.948 5.928-12.743 10.66-23.06 16.057-1.714.897-2.744 1.535-3.153 1.954-.333.342-1.14 1.535-1.793 2.651a164.614 164.614 0 0 1-2.472 4.058c-2.446 3.865-4.088 7.325-5.667 11.942a110.867 110.867 0 0 1-1.871 4.996c-1.27 3.106-1.356 3.686-1.133 7.55.144 2.496.135 3.138-.057 4.248-.34 1.957-1.084 3.384-2.495 4.792-1.872 1.868-3.873 2.641-6.478 2.504-3.014-.159-5.296-1.594-6.98-4.39-1.173-1.949-1.403-2.99-1.582-7.173-.15-3.492-.29-4.038-1.246-4.879-1.514-1.328-14.685-10.727-19.656-14.025-13.45-8.923-23.525-13.455-33.129-14.9-3.867-.583-9.663-.536-13.831.11-8.575 1.33-16.534 5.38-23.108 11.76-8.017 7.78-13.103 17.814-15.134 29.853-.845 5.013-.814 7.657.149 12.4 1.406 6.927 4.44 13.448 8.76 18.833 1.498 1.867 4.534 4.927 6.263 6.312 4.029 3.227 8.722 5.78 13.425 7.306 5.152 1.67 9.4 2.193 14.755 1.814z"/>
        <path style="fill:#fff72a;stroke-width:1.9;-inkscape-stroke:none;fill-opacity:1" d="M116.55 244.233c-1.444-.186-6.138-1.148-8.05-1.65-2.245-.59-4.224-1.338-6.791-2.57-4.879-2.342-8.369-4.868-12.375-8.958-9.557-9.758-14.231-23.234-12.538-36.149 1.288-9.824 5.508-19.554 12.017-27.703 1.537-1.925 5.454-5.85 7.3-7.316 7.146-5.675 15.468-9.074 24.196-9.884 2.235-.207 8.76-.207 10.64 0 1.81.2 5.009.78 7.095 1.288 8.468 2.061 18.376 7.283 32.839 17.308 6.476 4.49 14.977 10.732 16.28 11.957 1.231 1.156 1.354 1.542 1.618 5.09.444 5.972 1.018 7.825 2.794 9.018.91.612 1.64.754 3.502.686 1.998-.073 2.845-.388 3.877-1.443 1.771-1.81 2.149-4.413 1.29-8.889-.173-.902-.261-1.785-.207-2.076.052-.278.503-1.465 1.001-2.638 1.048-2.465 1.822-4.462 2.834-7.317 1.625-4.58 2.955-7.282 5.883-11.948 1.037-1.653 2.309-3.782 2.826-4.73.516-.947 1.065-1.882 1.218-2.077.55-.7 1.687-1.416 5.207-3.283 4.671-2.476 6.971-3.81 9.815-5.69 4.538-3 7.872-5.695 11.43-9.243 4.642-4.627 7.502-8.747 8.881-12.793.415-1.217.49-1.673.548-3.318.057-1.628.02-2.057-.246-2.937-.542-1.783-2.007-3.662-3.266-4.188-.66-.276-2.187-.27-2.862.013-1.518.634-2.666 2.134-4.037 5.274-1.6 3.665-2.785 5.348-6.079 8.639-10.225 10.217-27.484 18.026-39.838 18.026-4.326 0-8.553-.966-12.174-2.783-1.661-.834-3.969-2.372-6.312-4.208-2.392-1.874-3.02-2.274-5.167-3.286-2.306-1.088-3.364-2.084-3.837-3.615-.583-1.887-.377-3.62.892-7.525 2.02-6.216 2.003-7.31-.229-14.202-.968-2.99-1.278-4.539-1.278-6.385 0-7.187 4.882-13.842 14.631-19.941 5.296-3.314 11.413-5.923 17.695-7.547 4.66-1.204 10.768-2.255 14.526-2.499 2.95-.19 10.99-.186 13.716.01 2.289.163 7.445.95 10.365 1.58 7.596 1.643 15.34 5.121 20.243 9.092 1.633 1.323 3.984 3.7 5.341 5.4 3.019 3.781 5.971 9.433 7.467 14.293 1.898 6.166 2.371 13.05 1.296 18.847-1.609 8.666-4.17 14.512-10.684 24.387-2.305 3.494-3.526 5.24-9.688 13.862-9.412 13.17-11.895 17.33-13.993 23.446-1.445 4.21-1.98 7.767-2.76 18.336-.646 8.749-1.214 11.071-3.56 14.548-3.702 5.488-9.796 7.953-18.906 7.647-5.147-.173-9.052-1.207-14.503-3.841-4.677-2.26-7.614-4.066-21.417-13.172-18.225-12.022-22.838-14.8-29.908-18.008-7.93-3.598-11.947-4.858-18.307-5.743-3.356-.467-7.433-.129-11.85.985-4.092 1.031-7.411 2.943-10.422 6.003-3.019 3.067-5.12 6.892-5.966 10.864-.41 1.921-.376 6.218.062 7.948.902 3.562 3.247 7.205 5.942 9.23 1.368 1.03 2.9 1.9 8.904 5.07 12.72 6.714 21.457 11.78 23.605 13.687.885.785.993 1.13.595 1.9-.891 1.722-6.134 3.91-11.726 4.891-1.565.275-7.851.429-9.395.23zm9.01-3.1c4.32-.503 7.975-1.748 7.975-2.716 0-.827-8.786-5.986-21.717-12.75-2.645-1.383-5.406-2.854-6.134-3.267-5.375-3.05-8.874-7.705-10.02-13.331-.381-1.87-.418-5.618-.074-7.62 1.088-6.336 5.09-12.333 10.742-16.1 4.977-3.316 10.802-4.933 17.66-4.904 6.998.03 13.052 1.76 22.543 6.444 7.66 3.78 13.235 7.099 27.685 16.479 20.36 13.216 26.366 16.5 32.808 17.94 1.72.383 6.25.473 8.342.165 3.577-.528 6.601-1.427 8.44-2.509 1.429-.84 3.037-2.571 3.84-4.131 1.63-3.172 2.216-6.33 3.125-16.822.76-8.772 1.052-10.46 2.582-14.936 2.547-7.447 4.963-11.469 15.225-25.343 5.354-7.238 5.666-7.676 7.929-11.121 10.8-16.444 13.719-28.262 10.253-41.52-1.743-6.671-4.947-12.428-9.39-16.871-6.91-6.91-17.07-11.078-30.657-12.575-3.516-.387-13.093-.39-16.157-.004-11.845 1.491-22.595 5.249-31.035 10.847-2.562 1.7-4.122 2.974-6.162 5.036-2.582 2.61-4.169 4.997-5.047 7.594-.363 1.074-.407 1.427-.413 3.307-.008 2.342-.18 1.641 1.747 7.138 1.215 3.466 1.35 4.287 1.282 7.816l-.052 2.78-.95 2.84c-1.448 4.327-1.662 5.719-1.068 6.945.384.793.812 1.12 3.239 2.476 2.389 1.335 2.833 1.633 5.094 3.421 3.152 2.493 5.095 3.627 7.868 4.592 2.795.973 4.431 1.21 8.364 1.215 3.725.003 4.917-.118 8.19-.832 6.353-1.384 12.275-3.93 19.015-8.17 6.495-4.087 12.256-9.036 14.415-12.382.357-.554.97-1.818 1.362-2.81.891-2.26 1.296-3.068 2.115-4.223.89-1.256 2.134-2.355 3.335-2.946.955-.47 1.094-.496 2.664-.496 1.62 0 1.683.013 2.853.584 2.342 1.144 4.508 3.867 5.11 6.422.659 2.791.045 6.335-1.727 9.972-1.693 3.476-4.35 7-8.106 10.755-5.847 5.844-12.23 10.36-21.783 15.414-2.21 1.169-3.927 2.18-4.32 2.542-.404.372-1.29 1.659-2.332 3.382-.924 1.529-2.216 3.66-2.872 4.734-2.008 3.29-3.456 6.47-5.043 11.07a102.037 102.037 0 0 1-1.573 4.208c-1.44 3.55-1.482 3.814-1.273 8.017.18 3.588.01 4.864-.884 6.688-.772 1.577-2.418 3.216-3.961 3.946-4.579 2.167-9.469.263-11.715-4.563-.726-1.56-.897-2.518-1.057-5.91-.081-1.742-.224-3.437-.317-3.768-.101-.363-.416-.84-.792-1.202-.592-.57-6.585-4.97-12.495-9.174-17.447-12.41-29.328-18.254-40.504-19.925-2.007-.3-2.892-.348-6.388-.342-2.932.005-4.596.077-5.997.262-8.106 1.07-15.083 4.11-21.732 9.465-1.667 1.343-5.309 5.05-6.816 6.939-5.147 6.452-8.61 13.819-10.386 22.093-1.06 4.938-1.365 7.54-1.224 10.411.252 5.119 1.99 11.382 4.587 16.536 6.63 13.156 19.688 22.008 34.054 23.086 1.325.099 5.802-.073 7.73-.298z"/>
        <path style="fill:#fff72a;stroke-width:1.9;-inkscape-stroke:none;fill-opacity:1" d="M116.408 244.212c-1.846-.238-7.117-1.358-8.811-1.872-4.649-1.409-9.156-3.717-13.288-6.804-1.967-1.47-6.459-5.858-8.025-7.842-7.07-8.953-10.63-20.256-9.706-30.81.96-10.95 5.851-22.314 13.333-30.973 7.11-8.228 16.655-13.703 26.942-15.454 3.073-.524 5.246-.65 9.919-.576 4.768.075 5.701.182 10.295 1.183 8.124 1.77 17.247 6.334 30.438 15.228 6.94 4.68 17.995 12.701 19.657 14.262 1.211 1.139 1.352 1.564 1.613 4.865.461 5.822.818 7.257 2.15 8.66 1.026 1.078 1.482 1.227 3.78 1.227 1.912 0 2.077-.024 2.876-.417 1.621-.796 2.669-2.357 2.995-4.463.202-1.305.108-2.782-.339-5.318-.375-2.131-.386-2.075 1.191-5.809a134.18 134.18 0 0 0 2.108-5.41c2.038-5.633 2.964-7.598 5.54-11.757 1.705-2.752 3.038-4.992 4.127-6.94.477-.853.875-1.345 1.415-1.751.413-.31 2.605-1.556 4.87-2.768 9.665-5.169 15.16-9.055 20.83-14.731 4.57-4.575 7.477-8.776 8.82-12.748.606-1.792.77-4.605.354-6.05-.506-1.754-1.917-3.672-3.138-4.262-.842-.408-2.33-.42-3.2-.025-1.167.53-2.24 1.827-3.238 3.912-2.604 5.446-3.152 6.283-6.119 9.363-4.915 5.1-12.292 10.094-20.006 13.542-7.142 3.191-13.277 4.782-19.312 5.007-4.95.185-8.968-.629-13.076-2.649-2.093-1.029-3.616-2.02-6.248-4.068-2.437-1.897-3.385-2.501-5.618-3.587-1.52-.739-1.963-1.035-2.609-1.741-1.08-1.182-1.458-2.414-1.335-4.344.099-1.545.38-2.694 1.53-6.254 1.552-4.803 1.5-6.291-.442-12.4-1.352-4.257-1.349-4.238-1.351-6.913-.002-2.048.05-2.605.351-3.757 1.6-6.117 6.622-11.676 15.121-16.74 6.68-3.98 13.003-6.35 21.492-8.056 6.537-1.314 9.304-1.576 16.683-1.577 5.863-.001 8.067.148 12.224.826 5.53.902 8.733 1.705 12.918 3.237 4.042 1.479 9.442 4.415 12.055 6.555 4.253 3.483 7.386 7.424 10.023 12.606 3.417 6.719 4.882 12.67 4.882 19.831 0 3.08-.178 4.654-.932 8.227-.966 4.58-2.125 7.894-4.268 12.213-2.634 5.31-6.185 10.801-14.53 22.469-9.91 13.857-12.302 17.69-14.476 23.196-1.91 4.84-2.548 8.38-3.318 18.435-.457 5.977-.745 8.64-1.122 10.37-1.083 4.978-4.34 9.22-8.797 11.46-1.427.715-3.667 1.413-5.77 1.795-2.437.443-8.454.482-10.894.071-5.68-.956-11.175-3.386-19.782-8.747-1.364-.85-5.828-3.758-9.92-6.463-21.139-13.977-25.433-16.547-33.816-20.235-7.1-3.125-10.492-4.14-16.757-5.016-3.318-.464-8.222-.01-12.314 1.139-7.766 2.18-13.832 8.497-15.726 16.377-.297 1.234-.343 1.816-.339 4.284.004 2.418.053 3.032.32 4.012.999 3.678 3.057 6.915 5.748 9.042 1.409 1.113 2.893 1.966 9.46 5.436 12.912 6.822 21.323 11.725 23.402 13.642.703.647.796 1.033.424 1.751-1.06 2.049-8.164 4.68-13.824 5.12-2.158.168-6.084.16-7.44-.016zm8.26-3.004c5.036-.473 9.186-1.838 8.783-2.889-.36-.936-8.31-5.633-19.379-11.45-9.527-5.005-10.178-5.386-12.154-7.107-3.245-2.825-5.403-6.515-6.254-10.693-.378-1.853-.415-5.554-.076-7.64.45-2.782 1.783-6.133 3.463-8.71 4.133-6.342 10.705-10.481 18.779-11.829 9.148-1.527 17.387.266 29.682 6.46 7.285 3.67 12.349 6.719 28.556 17.196 11.164 7.216 15.898 10.13 20.064 12.351 5.119 2.729 8.9 4.149 12.308 4.623 1.689.235 5.14.199 6.985-.073 8.008-1.18 11.384-3.488 13.24-9.05.886-2.651 1.362-5.93 2.114-14.537.752-8.617 1.046-10.306 2.57-14.758 2.531-7.403 5.044-11.601 14.999-25.064 5.154-6.97 6.25-8.506 8.157-11.427 5.61-8.593 8.85-15.422 10.555-22.244 2.802-11.211-.137-24.63-7.354-33.568-8.033-9.95-22.764-15.494-41.18-15.499-8.42-.002-15.541 1.17-23.671 3.897-13.848 4.643-23.99 12.28-26.553 19.996-.222.667-.275 1.307-.275 3.307v2.48l1.171 3.285c1.705 4.781 1.646 4.498 1.722 8.292l.066 3.31-.774 2.25c-1.002 2.91-1.659 5.453-1.659 6.421 0 1.59.707 2.347 3.683 3.944 1.759.944 2.79 1.639 4.809 3.237 3.917 3.103 6.237 4.332 9.94 5.267 6.107 1.542 14.43.603 22.373-2.525 7.767-3.06 17.129-9.133 22.769-14.77 2.483-2.482 3.3-3.699 4.401-6.549 1.391-3.602 3.048-5.733 5.331-6.857.956-.47 1.093-.496 2.672-.496 1.617 0 1.696.016 2.793.558 2.578 1.274 4.702 4.042 5.248 6.84.26 1.333.111 4.174-.298 5.677-2.092 7.68-10.037 16.665-21.424 24.23-3.028 2.012-5.626 3.54-9.797 5.761-1.917 1.02-3.786 2.074-4.154 2.342-.696.504-.949.868-3.592 5.165-3.717 6.046-4.997 8.635-6.795 13.752a145.648 145.648 0 0 1-2.01 5.336l-1.006 2.48-.01 4.658c-.01 4.35-.033 4.725-.335 5.636-.948 2.865-3.382 5.214-6.139 5.924-1.075.278-2.854.31-3.991.072-2.558-.533-4.833-2.487-6.124-5.26-.723-1.554-.9-2.53-1.066-5.916-.085-1.738-.224-3.418-.308-3.732-.212-.794-.855-1.385-4.048-3.724-15.243-11.168-23.036-16.237-31.405-20.426-10.163-5.088-18.325-7.016-27.46-6.488-3.402.196-5.754.546-8.632 1.284-10.61 2.72-20.197 9.995-26.615 20.2-1.472 2.34-3.764 6.972-4.7 9.497-2.248 6.07-3.713 13.8-3.461 18.263.453 8.019 4.005 17.14 9.248 23.747 1.26 1.587 4.405 4.803 6.03 6.163 6.474 5.425 14.87 8.945 22.732 9.533 1.854.139 5.046.073 7.456-.153z"/>
        <path style="fill:#fff72a;stroke-width:1.9;-inkscape-stroke:none;fill-opacity:1" d="M115.913 244.153c-2.639-.432-6.646-1.307-8.328-1.816-4.665-1.414-9.422-3.862-13.467-6.929-1.968-1.492-6.77-6.29-8.248-8.24-5.406-7.136-8.512-15.002-9.288-23.521-.852-9.366 2.063-20.612 7.819-30.165 2.288-3.797 4.762-6.951 7.94-10.123 3.217-3.21 5.564-5.059 9.066-7.142 5.32-3.164 10.436-4.992 16.798-6.004 2.096-.334 10.249-.482 12.661-.231 3.401.354 8.05 1.396 11.461 2.569 9.5 3.267 22.44 11.147 40.73 24.803 3.961 2.958 4.873 3.772 5.254 4.687.146.35.345 1.853.527 3.983.463 5.413.877 6.922 2.25 8.206.982.92 1.536 1.076 3.767 1.07 1.588-.004 1.987-.054 2.581-.324 1.689-.769 2.839-2.468 3.14-4.642.185-1.322.11-2.453-.336-5.15-.169-1.021-.27-2.04-.225-2.265.044-.224.53-1.486 1.08-2.803a187.087 187.087 0 0 0 2.195-5.626c2.517-6.79 3.096-8.009 6.191-13.027 1.118-1.81 2.494-4.131 3.058-5.156 1.514-2.747 1.546-2.774 6.813-5.567 5.027-2.665 8.034-4.467 11.578-6.939 6.051-4.219 11.706-9.682 15.057-14.55 2.714-3.94 3.83-7.08 3.694-10.389-.064-1.547-.098-1.688-.702-2.909-.772-1.556-1.884-2.76-2.912-3.153-.985-.375-2.46-.258-3.236.256-1.414.938-2.205 2.065-3.571 5.089-1.22 2.7-1.902 3.846-3.371 5.671-6.55 8.133-20.257 16.417-32.258 19.495-8.472 2.172-15.732 1.823-21.777-1.047-2.27-1.078-3.62-1.945-6.885-4.42-2.247-1.704-3.221-2.334-4.925-3.188-2.423-1.214-3.373-1.992-4.006-3.281-.381-.777-.415-.987-.412-2.574.004-1.924.147-2.578 1.43-6.555 1.622-5.026 1.576-6.349-.443-12.769-1.212-3.855-1.44-5.152-1.326-7.566.245-5.227 3.07-10.116 8.522-14.745 5.207-4.423 12.327-8.32 19.488-10.669 5.569-1.826 13.231-3.376 18.54-3.75 2.781-.195 11.322-.198 14.007-.005 2.18.158 6.528.804 9.563 1.422 7.801 1.589 15.43 4.89 20.607 8.915 1.605 1.249 4.463 4.08 5.722 5.669 2.991 3.774 6.059 9.63 7.503 14.322 1.43 4.643 2.116 10.189 1.815 14.665-.154 2.306-.156 2.315-.78 5.505-.943 4.818-2.29 8.723-4.564 13.226-2.578 5.107-6.222 10.711-14.524 22.336-7.924 11.096-10.42 14.885-12.526 19.02-1.776 3.484-3.18 7.49-3.82 10.903-.55 2.926-.737 4.691-1.513 14.32-.545 6.758-.993 8.956-2.37 11.635-3.332 6.48-9.365 9.557-18.744 9.557-5.926 0-10.214-1.112-16.607-4.307-4.67-2.334-7.485-4.076-20.89-12.927-17.195-11.353-21.927-14.223-28.59-17.34-6.277-2.935-10.866-4.63-14.646-5.41-4.836-.997-7.69-1.215-10.945-.836-7.204.838-11.837 2.845-15.848 6.866-3.762 3.771-5.989 8.382-6.31 13.063-.189 2.75.019 5.23.579 6.901.873 2.606 2.33 5.022 4.118 6.833 1.74 1.762 2.818 2.424 10.923 6.707 10.411 5.502 17.263 9.393 21.257 12.07 2.96 1.984 3.223 2.545 1.835 3.933-1.614 1.614-6.31 3.392-11.144 4.22-1.966.337-8.3.427-10.032.143zm10.558-3.147c3.337-.508 6.14-1.395 6.813-2.156.411-.464.173-.756-1.586-1.948-3.17-2.147-8.742-5.322-16.979-9.673-10.583-5.592-10.524-5.558-12.625-7.317-3.452-2.891-5.914-7.243-6.604-11.67-.258-1.662-.078-6.487.298-7.977 1.676-6.63 5.939-12.288 11.885-15.773 6.776-3.973 15.892-5.143 24.434-3.137 4.555 1.07 9.033 2.797 15.03 5.797 7.188 3.595 12.511 6.784 27.654 16.566 13.519 8.734 17.64 11.251 22.543 13.773 6.516 3.35 10.049 4.315 15.18 4.144 2.64-.088 4.204-.307 6.729-.943 6.221-1.567 8.953-4.678 10.244-11.67.405-2.192.82-5.824 1.287-11.237.72-8.368 1.038-10.192 2.535-14.578 1.454-4.26 2.638-6.834 4.774-10.385 2.416-4.015 3.992-6.28 10.656-15.315 4.986-6.76 6.805-9.346 8.828-12.55 5.995-9.491 9.318-17.53 10.282-24.873.333-2.534.207-8.593-.229-11.005-2.8-15.513-11.552-25.51-26.666-30.46-10.594-3.47-23.832-4.286-35.429-2.184-8 1.45-16.6 4.53-23.082 8.264-7.207 4.154-12.276 9.297-14.06 14.267-.263.733-.337 1.346-.393 3.251l-.068 2.348.629 1.785c2.427 6.888 2.407 6.801 2.407 10.7l-.001 2.959-.678 1.954c-1.461 4.215-1.912 6.348-1.591 7.533.228.843 1.091 1.606 3.027 2.677 2.132 1.179 3.623 2.176 5.885 3.936 3.306 2.572 5.538 3.79 8.489 4.63 7.75 2.208 17.985.591 28.003-4.424 6.62-3.314 13.54-8.16 17.984-12.592 2.47-2.463 3.296-3.677 4.403-6.47.338-.853.792-1.902 1.008-2.329 1.066-2.107 2.739-3.88 4.406-4.67.912-.433 1.096-.465 2.641-.465 1.616 0 1.692.015 2.798.562 2.156 1.065 4.147 3.349 4.947 5.675.5 1.454.572 4.249.156 6.13-1.054 4.772-4.315 9.896-9.782 15.37-5.752 5.758-11.955 10.175-21.373 15.219-4.27 2.287-4.677 2.547-5.285 3.38-.484.663-2.014 3.136-4.545 7.342-2.107 3.502-3.512 6.576-5.157 11.283a117.376 117.376 0 0 1-1.84 4.85l-.957 2.33-.01 4.659c-.009 4.355-.03 4.722-.334 5.636-.946 2.849-3.394 5.22-6.124 5.931-1.112.29-3.199.294-4.27.008-2.442-.65-4.444-2.345-5.634-4.772-.946-1.928-1.11-2.717-1.294-6.264-.168-3.244-.3-4.066-.74-4.625-1.192-1.517-19.573-14.452-26.38-18.566-8.143-4.92-15.434-8.222-21.868-9.903-6.503-1.7-14.43-1.892-21.047-.511-15.178 3.167-28.074 15.318-33.655 31.71-1.923 5.648-3.173 12.774-2.927 16.685.523 8.322 4.066 17.32 9.44 23.972 1.303 1.61 4.288 4.641 5.956 6.045 3.118 2.624 7.951 5.448 11.873 6.939 2.786 1.058 6.297 1.96 9.093 2.335 1.635.219 9.03.081 10.896-.203z"/>
        <path style="fill:#fff72a;stroke-width:1.9;-inkscape-stroke:none;fill-opacity:1" d="M61.996 189.761c0-.876 1.232-6.017 2.057-8.583 2.757-8.578 8.154-18.036 14.278-25.024 4.21-4.802 9.866-9.425 15.318-12.518 10.672-6.054 22.233-8.862 33.927-8.24 7.76.412 12.873 1.47 22.912 4.741 3.983 1.299 4.539 1.435 4.539 1.112 0-.098-.515-1.332-1.144-2.743-2.204-4.945-2.721-7.079-2.566-10.596.087-1.956.25-2.932 1.168-7 .28-1.244.34-1.955.343-4.132l.004-2.63-.634-2.18c-1.389-4.779-1.557-5.546-1.64-7.468-.307-7.104 2.104-14.385 6.884-20.787 3.815-5.111 9.117-9.754 15.62-13.677 2.723-1.643 8.357-4.41 11.498-5.649 8.126-3.204 15.462-4.968 24.422-5.872 3.697-.373 13.756-.375 17.735-.003 7.778.728 13.677 1.893 18.764 3.708 12.988 4.633 22.93 11.338 29.87 20.146 4.606 5.847 7.69 12.813 9.378 21.186 1.858 9.22 1.503 17.676-1.19 28.26-1.348 5.3-2.468 8.345-4.908 13.354-3.36 6.895-5.65 10.345-14.727 22.194-3.963 5.173-5.024 6.715-5.024 7.297 0 .482.528.832 4.659 3.09 2.654 1.451 5.057 3.018 6.913 4.508 1.74 1.397 4.894 4.479 6.357 6.212l1.204 1.428-1.891.042-1.892.042-1.926-1.932c-3.781-3.79-6.706-5.813-13.725-9.491-2.815-1.475-3.55-2.034-3.695-2.807-.21-1.115.404-2.076 5.922-9.275 13.304-17.355 17.195-24.334 20.094-36.042 2.07-8.359 2.489-15.33 1.421-23.671-1.102-8.612-4.26-16.142-9.607-22.898-1.6-2.022-6.362-6.77-8.499-8.476-8.79-7.016-20.445-11.843-32.839-13.603-4.545-.645-5.406-.688-13.601-.687-8.56 0-8.512-.002-13.978.905-9.827 1.632-17.066 3.896-24.497 7.661-6.228 3.155-10.708 6.338-15.115 10.737-3.641 3.636-5.646 6.36-7.583 10.302-2.121 4.317-2.743 6.657-2.876 10.82-.123 3.875.04 5.179 1.138 9.03.493 1.73.977 3.613 1.076 4.186.285 1.65.097 3.685-.667 7.225-.855 3.959-1.107 6.53-.858 8.745.567 5.038 2.869 8.858 8.342 13.845 2.081 1.896 3.392 3.42 3.392 3.942 0 .15-.114.388-.254.527-.608.608-2.711-.055-8.23-2.597-7.001-3.224-11.236-4.77-16.973-6.196-3.383-.84-6.271-1.396-8.735-1.68-2.276-.262-11.202-.263-13.376 0-11.31 1.364-22.648 6.15-31.336 13.23-1.852 1.508-6.023 5.556-8.148 7.905-6.714 7.426-11.637 17.365-13.714 27.69a240.74 240.74 0 0 1-.462 2.258c-.071.322-.145.338-1.5.338-1.116 0-1.425-.045-1.425-.209z"/>
        <path style="fill:#fff72a;stroke-width:1.9;-inkscape-stroke:none;fill-opacity:1" d="M200.615 188.655c-.014-.723-.178-2.272-.365-3.442l-.34-2.126.393-1.03c.217-.566.862-2.179 1.435-3.584a199.5 199.5 0 0 0 2.14-5.561c1.87-5.118 2.6-6.599 5.847-11.873.967-1.57 2.12-3.498 2.561-4.284 1.925-3.42 1.446-3.025 7.743-6.39 8.844-4.725 14.318-8.598 19.822-14.021 5.259-5.183 8.346-9.719 9.492-13.946.337-1.244.456-3.874.22-4.885-.432-1.855-2.003-4.038-3.343-4.646-.733-.333-1.827-.38-2.728-.117-.986.287-2.588 1.995-3.355 3.577l-1.603 3.306c-.573 1.18-1.407 2.595-1.994 3.382-1.286 1.723-5.2 5.634-7.343 7.339-7.417 5.896-17.284 10.89-25.7 13.006-5.552 1.396-11.038 1.725-15.406.923-4.414-.81-7.958-2.503-12.526-5.985-2.932-2.235-3.653-2.705-5.788-3.775-3.053-1.53-4.04-2.746-4.188-5.156-.101-1.647.195-3.16 1.295-6.604 1.143-3.576 1.28-4.239 1.27-6.136-.01-1.853-.344-3.363-1.623-7.364-1.118-3.5-1.34-4.81-1.236-7.29.103-2.454.552-4.175 1.686-6.462 2.046-4.126 5.67-7.904 11.12-11.594 8.123-5.5 17.094-8.782 29.078-10.637 3.5-.542 5.96-.686 11.722-.687 6.94-.001 9.884.265 15.856 1.436 8.1 1.588 15.427 4.665 20.885 8.773 1.76 1.324 4.735 4.226 6.096 5.946 2.468 3.12 5.336 8.293 6.798 12.262 2.45 6.654 3.214 14.355 2.057 20.727-1.028 5.66-2.413 9.833-4.892 14.75-2.753 5.459-5.745 10.032-15.65 23.921-6.575 9.222-9.07 13.013-11.1 16.864-1.814 3.443-3.348 7.654-3.993 10.964l-.338 1.734h-3.051l.19-1.09c.63-3.602 2.713-9.466 4.685-13.188 1.874-3.535 4.955-8.227 9.121-13.89l5.149-7c3.296-4.482 4.726-6.543 6.766-9.744 6.015-9.44 9.379-17.555 10.352-24.974.345-2.625.228-8.295-.226-10.971-1.956-11.539-7.79-20.523-16.94-26.09-8.659-5.267-20.81-8.008-34.019-7.673-6.83.173-12.041.98-18.67 2.889-6.93 1.996-13.18 4.805-18.377 8.259-2.803 1.863-4.153 2.974-6.327 5.21-2.01 2.067-3.087 3.494-4.003 5.306-1.074 2.124-1.192 2.605-1.274 5.185l-.073 2.33 1.01 2.855c2.016 5.705 1.916 5.248 1.99 9.116l.063 3.405-.98 2.983c-.986 2.997-1.456 4.875-1.45 5.794.006.726.482 1.654 1.118 2.178.307.253 1.313.886 2.236 1.407 2.16 1.218 3.12 1.858 5.076 3.387 5.223 4.083 8.683 5.534 14.163 5.941 7.268.54 15.53-1.446 23.77-5.713 6.706-3.473 13.077-8.042 17.454-12.518 2.124-2.172 3.065-3.534 3.877-5.613 1.621-4.148 3.31-6.392 5.643-7.498.911-.432 1.096-.464 2.641-.464 1.616 0 1.692.015 2.798.562 2.152 1.063 4.08 3.251 4.897 5.554.524 1.478.643 4.15.268 6-1.274 6.299-6.94 13.863-15.548 20.76-4.725 3.785-9.29 6.7-16.545 10.56-3.585 1.908-3.984 2.208-4.934 3.7-5.147 8.083-6.991 11.635-8.965 17.264a134.978 134.978 0 0 1-1.939 5.11l-1.07 2.63.024 4.02.024 4.021h-2.903zM156.943 302.662v-1.305l10.277.036c12.64.044 78.87-.115 84.971-.204l4.434-.065 3.607-.497c3.898-.537 5.077-.732 6.876-1.14 11.027-2.496 20.55-8.548 27.474-17.458l.819-1.054 1.672-.001c.92 0 1.672.025 1.672.056 0 .091-2.112 2.883-2.878 3.804-7.489 9.011-15.59 14.155-26.768 16.994-2.707.688-6.339 1.389-8.341 1.61-.993.109-7.22.218-17.472.305-10.755.092-52.424.22-72.272.223l-14.07.002z"/>
        <path style="fill:#fff72a;stroke-width:1.9;-inkscape-stroke:none;fill-opacity:1" d="M156.943 302.644v-1.323l6.857.052c8.264.063 79.406-.088 87.264-.184l5.561-.069 3.015-.415c1.659-.228 3.45-.482 3.983-.563 8.056-1.237 15.528-4.358 21.858-9.13 1.731-1.304 3.17-2.568 4.965-4.362 1.914-1.913 2.768-2.869 4.115-4.607l.83-1.07h1.677c.922 0 1.677.022 1.677.049 0 .116-1.766 2.461-2.82 3.745-8.463 10.306-18.267 15.826-32.424 18.256-2.62.45-3.014.481-7.026.564-9.327.194-49.407.376-83.544.379h-15.988z"/>
        <path style="fill:#fff72a;stroke-width:1.9;-inkscape-stroke:none;fill-opacity:1" d="M156.943 302.64v-1.327l7.966.046c10.051.06 75.905-.073 84.953-.17l6.763-.074 3.306-.455c1.819-.25 3.814-.54 4.434-.645 12.11-2.034 22.572-8.256 30.159-17.934l.869-1.109h1.676c.921 0 1.675.026 1.674.057-.002.099-1.34 1.895-2.366 3.175-5.574 6.954-11.784 11.798-19.124 14.918-4.112 1.748-8.83 3.08-13.97 3.943-2.403.403-2.883.44-6.733.522-9.2.196-48.402.378-81.74.38h-17.867z"/>
        <path style="fill:#fff72a;stroke-width:1.9;-inkscape-stroke:none;fill-opacity:1" d="M156.943 302.676v-1.317l42.777-.047c23.528-.026 45.94-.08 49.804-.121l7.026-.074 2.78-.382c5.229-.717 6.436-.924 8.792-1.51 10.715-2.667 19.758-8.59 26.635-17.445l.628-.808h1.68c.924 0 1.68.026 1.679.057-.003.205-2.71 3.673-4.178 5.354-1.233 1.411-3.98 4.14-5.327 5.293-6.703 5.731-14.233 9.156-24.46 11.123-2.45.47-3.723.642-5.336.716-4.726.218-28.649.365-69.98.427l-32.52.05z"/>
        <path style="fill:#fff72a;stroke-width:1.9;-inkscape-stroke:none;fill-opacity:1" d="M156.943 302.664v-1.303l41.838-.05c23.01-.026 45.422-.082 49.803-.122l7.966-.074 3.306-.457c3.863-.533 5.445-.792 7.085-1.158 11.178-2.497 20.784-8.62 27.816-17.728l.617-.8h1.685c1.01 0 1.686.029 1.686.072 0 .039-.474.701-1.053 1.472-8.953 11.922-19.331 18.078-34.759 20.617-2.235.368-2.621.393-7.623.497-7.805.162-48.327.335-78.622.336l-19.745.001z"/>
        <path style="fill:#fff72a;stroke-width:1.9;-inkscape-stroke:none;fill-opacity:1" d="M189.857 302.671v-1.315l23.127-.049a9301.69 9301.69 0 0 0 33.346-.12l10.22-.073 3.505-.49c1.927-.268 4.007-.574 4.621-.68 6.528-1.123 12.992-3.682 18.476-7.314 7.14-4.73 13.22-11.73 17.205-19.811 2.157-4.375 3.96-10.107 5.084-16.175l.255-1.372h1.409c.775 0 1.409.018 1.409.039 0 .342-.645 3.802-1.022 5.485-2.439 10.883-7.367 20.014-15.022 27.831-5.29 5.402-10.818 8.968-17.938 11.572-4.481 1.64-11.178 3.123-14.974 3.318-3.301.17-22.599.32-53.939.42l-15.762.05z"/>
        <path style="fill:#fff72a;stroke-width:1.9;-inkscape-stroke:none;fill-opacity:1" d="M189.857 302.652v-1.315h6.256c13.787-.004 55.141-.161 57.995-.222l3.043-.064 3.645-.529c2.004-.29 4.185-.634 4.847-.762 6.32-1.23 12.362-3.705 17.638-7.227 5.29-3.532 10.126-8.436 13.777-13.973 4.002-6.07 6.494-12.463 8.213-21.07.165-.827.323-1.664.352-1.86l.052-.357h1.42c.888 0 1.419.027 1.419.074 0 .175-.538 3.212-.752 4.246-2.412 11.653-7.475 21.173-15.591 29.314-2.691 2.7-4.661 4.341-7.404 6.17-5.916 3.948-12.804 6.52-21.388 7.99-2.962.507-4.155.552-17.725.675-9.034.082-40.655.223-50.18.225h-5.617z"/>
        <path style="fill:#fff72a;stroke-width:1.9;-inkscape-stroke:none;fill-opacity:1" d="M189.857 302.652v-1.315h5.054c12.078-.001 55.417-.163 58.633-.22l3.532-.06 3.682-.533c4.056-.586 5.668-.883 7.824-1.44 10.761-2.782 19.863-8.932 26.73-18.063 4.987-6.63 8.067-13.95 9.989-23.738l.395-2.01h1.409c1.081 0 1.409.021 1.409.094 0 .196-.54 3.196-.798 4.437-2.334 11.22-7.34 20.729-15.096 28.675-4.127 4.228-7.997 7.078-12.925 9.517-4.183 2.07-8.453 3.496-13.697 4.574-3.8.781-5.01.925-8.622 1.02-5.759.15-42.114.375-60.85.377h-6.669z"/>
        <path style="fill:#fff72a;stroke-width:1.9;-inkscape-stroke:none;fill-opacity:1" d="M189.857 302.664v-1.327h2.987c10.16 0 55.157-.168 59.272-.222l4.96-.065 3.138-.455c5.279-.765 6.972-1.095 9.734-1.898 6.828-1.985 12.798-5.233 18.126-9.862 1.188-1.032 3.914-3.78 4.968-5.007 6.514-7.585 10.241-15.825 12.434-27.485l.201-1.07h1.418c1.334 0 1.419.007 1.419.14 0 .532-.882 4.97-1.392 7.011-2.547 10.172-7.37 18.789-14.687 26.241-4.975 5.066-10.008 8.427-16.497 11.018-4.683 1.87-11.955 3.592-16.182 3.832-3.227.184-22.598.342-51.92.426l-17.979.05z"/>
        <path style="fill:#fff72a;stroke-width:1.9;-inkscape-stroke:none;fill-opacity:1" d="M189.857 302.664v-1.327h4.34c11.125 0 54.923-.165 58.67-.22l4.209-.063 3.194-.46c5.106-.738 6.894-1.085 9.543-1.851 6.63-1.918 12.309-4.928 17.592-9.322 1.51-1.256 4.729-4.478 6-6.006 5.98-7.193 9.44-14.563 11.6-24.723.185-.868.412-1.993.505-2.5l.169-.92h1.417c1.18 0 1.418.018 1.418.108 0 .207-.456 2.757-.756 4.23-2.299 11.282-7.327 20.873-15.137 28.869-5.18 5.304-10.473 8.816-17.145 11.378-4.772 1.831-11.648 3.428-15.768 3.66-3.148.178-22.812.337-52.285.423l-17.566.052zM183.084 162.469c-8.952-6.293-11.56-8.378-11.56-9.244 0-1.017 2.193-.726 5.362.712 3.46 1.57 8.697 2.717 14.342 3.14 5.089.382 5.733.77 5.029 3.025-.943 3.02-3.632 7.589-4.54 7.717-.53.075-3.779-1.938-8.633-5.35z"/>
        <path style="fill:#fff72a;stroke-width:1.9;-inkscape-stroke:none;fill-opacity:1" d="M117.153 244.227c-2.113-.189-7.91-1.395-10.132-2.11-6.503-2.09-12.08-5.522-17.08-10.511-4.81-4.798-8.002-9.62-10.403-15.71-3.216-8.158-3.866-16.41-1.98-25.147 2.222-10.3 7.543-20.128 14.868-27.463 3.056-3.06 5.416-4.89 9.247-7.17 4.822-2.871 9.994-4.778 15.33-5.654 3.133-.513 5.564-.657 9.873-.583 3.683.064 4.268.111 6.81.554 5.854 1.02 10.145 2.416 15.725 5.112 7.364 3.56 16.73 9.534 29.663 18.924 7.764 5.637 8.777 6.472 9.267 7.646.143.343.294 1.701.427 3.854.302 4.864.745 6.684 1.957 8.031 1.034 1.15 1.862 1.452 3.98 1.446 2.07-.005 3.03-.312 4.169-1.337 1.845-1.659 2.317-4.428 1.48-8.676-.478-2.422-.481-2.4.771-5.232 1.085-2.453 1.936-4.662 3.057-7.933 1.231-3.597 2.924-6.977 5.547-11.079 1.163-1.818 2.514-4.084 3.002-5.035 1.316-2.561 1.39-2.62 6.98-5.518 9.48-4.917 16.774-10.24 22.297-16.274 2.917-3.186 4.908-6.021 6.334-9.018.973-2.045 1.37-3.48 1.474-5.335.102-1.826-.091-2.864-.797-4.275-1.792-3.582-4.893-4.36-7.358-1.847-.986 1.006-1.61 2.075-2.474 4.238-.394.988-1.037 2.323-1.427 2.967-4.842 7.99-17.915 16.987-30.845 21.229-5.07 1.663-10.89 2.568-15.066 2.343-6.339-.34-11.136-2.293-16.815-6.843-2.386-1.912-3.33-2.525-5.01-3.255-2.38-1.033-3.278-1.783-3.99-3.331-.827-1.8-.553-4.268.951-8.55 1.037-2.953 1.268-4.029 1.268-5.9 0-2.046-.308-3.5-1.499-7.071-1.35-4.051-1.428-4.446-1.416-7.14.01-1.936.066-2.462.405-3.732 1.46-5.466 5.833-10.604 13.046-15.326 7.066-4.626 14.233-7.456 23.655-9.343 6.508-1.302 9.37-1.575 16.533-1.577 6.863 0 9.905.303 16.656 1.664 7.2 1.451 14.502 4.543 19.571 8.287 2.078 1.534 5.688 5.123 7.173 7.131 3.868 5.232 6.726 11.675 7.914 17.839.947 4.917 1.009 10.163.17 14.52-2.207 11.481-5.353 17.385-20.223 37.95a899.675 899.675 0 0 0-4.533 6.312c-6.527 9.294-9.57 15.53-10.934 22.399-.566 2.854-.785 4.8-1.21 10.742-.736 10.283-1.047 12.052-2.68 15.245-2.493 4.871-6.493 7.788-12.256 8.937-4.547.907-10.153.742-14.686-.431-2.379-.616-4.268-1.348-7.38-2.859-4.916-2.386-8.714-4.691-18.913-11.48-16.257-10.821-21.98-14.416-27.804-17.464-5.085-2.661-12.537-5.77-16.216-6.765-2.154-.583-8.355-1.566-9.874-1.566-2.335 0-7.687.844-10.08 1.59-3.695 1.15-7.52 3.655-10.081 6.6-6.206 7.14-7.256 16.763-2.566 23.506.99 1.422 1.956 2.497 3.053 3.394 1.686 1.38 2.389 1.779 12.324 6.994 9.672 5.076 18.998 10.554 20.911 12.283.67.605.735 1.03.272 1.78-1.076 1.74-6.442 3.9-11.913 4.794-1.636.267-6.594.4-8.519.229zm6.989-2.86c4.96-.457 8.588-1.488 9.354-2.658.2-.306.184-.364-.21-.732-1.804-1.688-10.276-6.56-21.919-12.608-6.518-3.386-8.088-4.366-10.125-6.32-3.046-2.924-4.944-6.46-5.655-10.536-.288-1.655-.29-4.986-.005-6.75 1.542-9.508 9.01-17.408 19.016-20.118 4.821-1.305 10.458-1.557 15.352-.685 6.225 1.108 13.533 4.05 22.577 9.088 6.092 3.393 11.26 6.59 22.64 14.003 13.14 8.56 18.466 11.785 23.52 14.24 6.48 3.15 10.788 4.026 16.256 3.31 6.43-.843 10.094-2.538 12.14-5.615 2.05-3.084 2.865-6.92 3.694-17.374.675-8.522 1.071-10.94 2.466-15.067 1.032-3.054 1.392-3.977 2.297-5.899 2.182-4.634 5.547-9.776 12.295-18.786 4.791-6.397 6.455-8.72 8.722-12.174 9.781-14.906 13.13-26.134 11.182-37.498-1.36-7.936-4.46-14.653-9.157-19.839-6.332-6.991-15.912-11.479-28.385-13.297-7.331-1.068-14.111-1.162-20.84-.289-18.188 2.361-35.316 11.414-40.204 21.251-.995 2.001-1.378 3.498-1.386 5.41-.008 1.86.088 2.26 1.374 5.756 1.758 4.78 1.742 4.703 1.742 8.522v3.307l-1.02 3.006c-1.073 3.16-1.528 5.184-1.366 6.077.238 1.32.904 1.95 3.52 3.33 2.261 1.193 3.23 1.848 5.364 3.625 4.239 3.53 8.179 5.156 13.791 5.69 5.74.546 13.746-1.084 20.666-4.209 8.786-3.967 19.038-11.44 22.917-16.704.858-1.165 1.276-1.978 1.734-3.369 1.608-4.884 4.58-7.741 8.056-7.741 3.135 0 6.615 2.907 7.737 6.462.402 1.272.533 3.555.292 5.067-.56 3.508-2.7 7.77-5.943 11.841-5.997 7.525-15.509 14.705-27.279 20.59-3.123 1.562-3.171 1.607-4.697 4.38-.462.838-1.446 2.463-2.189 3.611-2.687 4.154-4.448 7.745-5.834 11.892-1.05 3.142-1.533 4.44-2.288 6.15-1.034 2.343-1.129 2.899-.979 5.754.212 4.039.15 5.444-.302 6.85-1.169 3.639-4.461 6.076-8.208 6.076-3.405 0-6.254-1.922-7.89-5.323-.793-1.65-.983-2.748-1.105-6.395-.105-3.162-.119-3.268-.512-3.938-.447-.763-.38-.712-7.927-6.161-5.968-4.31-8.645-6.19-11.873-8.344-12.625-8.422-22.396-13.075-31.198-14.858-6.313-1.278-13.762-1.129-19.977.4-12.541 3.083-23.63 12.49-29.83 25.306-2.044 4.223-3.454 8.482-4.428 13.371-1.36 6.83-1.387 9.765-.136 15.41 3.05 13.771 12.045 24.849 24.655 30.363 3.442 1.505 7.912 2.743 11.317 3.134 1.615.186 6.253.195 8.19.016z"/>
        <path style="fill:#fff72a;stroke-width:1.9;-inkscape-stroke:none;fill-opacity:1" d="M86.944 248.782c-8.84-6.292-15.238-13.82-19.773-23.268-2.912-6.064-4.707-12.282-5.576-19.312-.38-3.073-.38-10.303 0-13.376 1.2-9.707 4.193-18.045 9.685-26.978 6.777-11.024 15.016-18.657 25.96-24.05 9.693-4.776 19.495-6.847 30.158-6.372 7.685.343 14.834 1.856 23.737 5.025 1.739.619 3.32 1.125 3.514 1.125.667 0 .566-.538-.495-2.649-1.43-2.842-2.315-5.348-2.676-7.57-.418-2.577-.224-4.917.752-9.094 1.213-5.185 1.145-6.617-.581-12.405-1.014-3.398-1.187-4.573-1.069-7.28.12-2.753.403-4.722 1.005-6.992 3.144-11.856 13.705-22.53 29.292-29.606 5.58-2.533 12.505-4.796 18.368-6.004 11.711-2.411 26.2-2.352 38.74.159 6.382 1.278 15.402 4.915 21.925 8.84 11.067 6.658 18.846 15.852 22.71 26.837 1.08 3.068 2.193 7.767 2.813 11.873.426 2.821.39 11.274-.062 14.578-.415 3.03-.902 5.49-1.858 9.384-1.394 5.678-2.732 9.183-5.828 15.264-3.121 6.133-6.038 10.395-14.807 21.637-3.921 5.028-4.149 5.362-4.149 6.084 0 .736.174.878 2.337 1.905 9.846 4.675 17.2 11.868 21.645 21.173 2.753 5.762 4.036 10.99 4.225 17.209.222 7.355-1.191 13.34-4.988 21.116-2.086 4.271-4.704 8.543-7.322 11.948l-1.098 1.428-1.84.042-1.842.042 1.67-2.07c5.498-6.825 9.621-14.8 11.637-22.512 1.398-5.346 1.557-9.189.6-14.44-2.318-12.706-8.616-22.116-19.271-28.79-1.044-.654-3.324-1.902-5.065-2.774-3.529-1.765-4.081-2.126-4.39-2.866-.453-1.084.177-2.203 3.99-7.095a790.523 790.523 0 0 0 4.826-6.256c10.965-14.426 14.991-22.241 17.651-34.262 1.12-5.062 1.43-7.902 1.43-13.155 0-11.528-2.375-20.105-7.825-28.268-3.756-5.625-9.188-10.908-15.329-14.908-9.501-6.19-20.46-9.783-33.429-10.961-2.893-.263-14.38-.259-16.983.006-2.653.27-9.398 1.412-12.249 2.073-22.886 5.311-39.757 18.846-43.156 34.624-.291 1.349-.341 2.036-.347 4.734-.007 3.67.093 4.302 1.329 8.416.447 1.488.897 3.234 1 3.88.244 1.52.108 3.463-.39 5.589-1.117 4.778-1.135 4.89-1.221 7.59-.067 2.089-.033 2.9.165 3.948.846 4.49 3.176 8.17 7.655 12.097 2.31 2.024 3.455 3.223 3.791 3.97.248.55.249.604.014.84-.678.676-2.919.016-7.715-2.274-6.994-3.338-11.09-4.874-16.917-6.341-7.064-1.78-11.121-2.273-17.454-2.125-8.203.192-15.306 1.8-23.034 5.214-7.046 3.113-12.975 7.21-18.705 12.923-5.208 5.193-8.638 9.897-11.708 16.055-2.59 5.194-4.1 9.777-5.413 16.41-.702 3.545-.895 5.885-.895 10.822 0 4.788.197 7.31.817 10.445 1.636 8.279 3.924 13.972 8.271 20.59 4.858 7.395 10.904 13.118 18.847 17.84l1.718 1.022-2.92-.005-2.92-.004z"/>
        <path style="fill:#fff72a;stroke-width:1.9;-inkscape-stroke:none;fill-opacity:1" d="M208.456 119.244c-3.09-.689-5.241-2.778-5.945-5.773-.298-1.267-.23-3.482.154-5.013 1.848-7.38 8.566-13.055 13.978-11.808 1.975.455 3.966 2.009 4.933 3.849 1.423 2.707 1.467 6.543.115 10.153-1.453 3.877-4.82 7.326-8.2 8.396-1.319.418-3.634.508-5.035.196zm3.562-2.631c2.686-.556 5.251-2.81 6.612-5.813 1.628-3.59 1.471-8.097-.353-10.17-1.524-1.73-3.828-1.971-6.329-.66-1.319.691-3.57 2.988-4.524 4.613-1.584 2.702-2.276 5.024-2.169 7.283.052 1.108.142 1.527.455 2.131 1.076 2.075 3.688 3.158 6.308 2.616zM207.63 253.836c-3.676-.053-4.21-.095-8.943-.709-10.839-1.405-15.6-2.68-22.055-5.904-4.678-2.337-8.613-4.767-21.154-13.066-21.62-14.307-27.628-17.833-36.996-21.713-3.628-1.503-5.332-2.465-6.59-3.724-1.005-1.004-1.39-1.836-1.39-3.008 0-1.394.702-3.032 2.187-5.109 2.149-3.005 4.782-4.626 8.447-5.202 1.113-.174 3.751-.17 5.072.01 7.746 1.048 17.407 5.522 30.66 14.197 2.492 1.63 3.962 2.634 8.003 5.461 6.148 4.301 10.528 7.26 14.203 9.596 12.09 7.681 19.668 10.899 27.84 11.82 4.006.45 8.259.382 11.8-.19 4.947-.8 9.443-2.485 13.244-4.964l.733-.478V234.655l-1.484.724c-2.806 1.366-5.353 2.247-8.811 3.048-11.556 2.675-20.197 1.523-31.975-4.263-6.722-3.303-13.88-7.698-26.076-16.01-15.79-10.763-22.675-14.886-29.27-17.53-1.403-.563-4.678-1.675-5.673-1.927-4.432-1.123-9.109-.555-12.228 1.484-.707.462-1.69 1.388-2.135 2.01-.665.932-1.38 2.718-1.38 3.446 0 .436.217.985.529 1.34.633.719 1.55 1.207 4.6 2.447 4.662 1.896 9.115 4.093 14.221 7.016 5.633 3.225 9.694 5.805 22.13 14.059 9.714 6.447 11.059 7.328 13.753 9.006 10.792 6.724 17.791 9.368 28.104 10.615 2.991.362 5.2.533 11.272.871 2.253.126 4.468.261 4.922.3 2.15.188 10.853-.022 17.358-.418.991-.06 1.88-.11 1.973-.11h.17v2.833l-1.109.047c-3.678.159-18.203.275-23.952.193z"/>
        <path style="fill:#fff72a;stroke-width:1.9;-inkscape-stroke:none;fill-opacity:1" d="M117.558 244.298a18.39 18.39 0 0 1-2.517-.33c-.74-.144-1.92-.367-2.622-.494-7.66-1.395-14.2-4.515-20.225-9.653-1.18-1.006-3.48-3.29-4.542-4.512-5.743-6.602-9.467-14.569-10.732-22.957-.404-2.682-.556-6.06-.39-8.642.517-7.986 3.3-16.566 7.83-24.143.253-.422.948-1.503 1.546-2.402l1.088-1.635h1.764c1.403 0 1.751.02 1.703.095-.033.052-.401.551-.819 1.109-3.496 4.667-6.267 10.122-8.03 15.81-.951 3.068-1.85 7.333-2.386 11.316-.06.45-.095 1.524-.092 2.894.004 2.33.097 3.235.604 5.858 3.095 16.016 14.31 28.679 29.45 33.252 4.217 1.274 7.655 1.743 11.91 1.627 5.788-.159 10.826-1.205 12.148-2.523.548-.547.513-.64-.53-1.424-2.84-2.135-11.115-6.855-20.56-11.728-5.608-2.893-6.886-3.586-8.04-4.362-2.895-1.944-5.258-4.556-6.714-7.419-1.09-2.143-1.7-4.144-2.013-6.593-.14-1.109-.12-3.772.04-4.96 1.304-9.718 8.513-17.76 18.556-20.696 3.567-1.044 7.935-1.56 11.51-1.363 9.084.502 18.647 4.355 34.363 13.846 4.05 2.446 7.556 4.676 15.158 9.64 12.827 8.378 18.12 11.599 23.22 14.128 4.32 2.143 7.202 3.127 10.596 3.618 1.223.177 4.023.178 5.486.001 1.445-.175 3.474-.533 4.735-.836 6.356-1.527 9.046-4.467 10.44-11.41.506-2.527.776-4.845 1.243-10.685.61-7.617.89-9.773 1.634-12.539l.283-1.051.02 12.082.018 12.082-.185.912c-.334 1.65-.653 2.605-1.357 4.069-1.821 3.782-4.657 6.548-8.305 8.1-2.78 1.184-5.745 1.742-9.729 1.832-8.732.198-14.901-2.069-27.616-10.147-1.178-.748-5.726-3.746-10.107-6.66-8.33-5.542-11.958-7.913-15.675-10.24-7.741-4.848-13.18-7.646-20.546-10.573-4.302-1.709-5.854-2.144-10.196-2.858-3.747-.617-4.52-.702-5.828-.647-2.381.1-7.276.913-9.3 1.544-3.545 1.104-6.575 2.94-9.243 5.602-3.48 3.472-5.676 7.82-6.324 12.52-.153 1.114-.174 3.618-.037 4.576.293 2.052.8 3.732 1.631 5.398.869 1.743 1.786 3.021 3.187 4.44 1.683 1.704 2.941 2.497 8.832 5.567 5.04 2.625 6.101 3.185 8.379 4.418 8.932 4.832 16.317 9.313 17.42 10.569.798.91-.344 2.335-2.88 3.596-2.537 1.262-7.608 2.653-10.595 2.906-1.334.113-5.227.157-6.659.076zM75.071 300.293c-3.656-1.502-6.602-3.057-9.769-5.153-10.543-6.98-18.392-17.2-22.191-28.896-.73-2.246-1.17-4.03-1.814-7.365-1.05-5.422-1.12-7.695-1.183-37.78l-.043-20.458h2.7l.05 13.996c.076 20.828.232 35.078.425 38.832.067 1.292.22 2.315.647 4.32 2.207 10.357 6.861 19.706 13.45 27.016.98 1.086 3.053 3.148 4.09 4.067 5.8 5.14 12.768 8.826 20.063 10.611 2.432.595 4.696 1.1 5.26 1.171.292.038-1.756.065-5.072.067l-5.56.004zM190.346 167.693c-.455-.277-1.47-.978-2.255-1.557-.785-.58-2.408-1.722-3.607-2.54-6.374-4.345-11.542-8.134-12.263-8.989-.61-.723-.87-1.435-.68-1.856.362-.793 1.594-.612 4.264.628 4.516 2.097 8.615 3.044 15.593 3.603 3.379.271 4.253.418 4.926.827.863.525.679 1.373-1.101 5.084-1.137 2.37-2.35 4.526-2.75 4.888-.546.494-1.22.466-2.127-.088z"/>
        <path style="fill:#fff72a;stroke-width:1.9;-inkscape-stroke:none;fill-opacity:1" d="M116.778 244.212c-1.573-.16-6.845-1.216-8.567-1.715-5.213-1.51-10.56-4.286-14.804-7.684-1.707-1.366-4.874-4.467-6.294-6.162-7.406-8.84-11.314-20.33-10.552-31.024 1.131-15.878 10.276-31.856 23.008-40.198 6.724-4.407 13.332-6.74 21.041-7.431 2.262-.203 8.334-.2 10.188.005 1.813.2 5.774.932 7.772 1.436 9.658 2.434 21.237 9.023 40.73 23.179 7.408 5.38 8.553 6.329 9.038 7.49.145.346.302 1.711.443 3.854.399 6.049 1.109 7.98 3.335 9.07.796.39.988.42 2.588.41 1.405-.01 1.888-.074 2.577-.342 1.631-.636 2.867-2.176 3.29-4.102.255-1.161.107-4.17-.297-6.036-.205-.95-.283-1.674-.218-2.03.056-.303.505-1.465.997-2.581.983-2.227 2.057-5.022 3.263-8.492.99-2.846 2.896-6.73 4.687-9.543 2.167-3.406 3.259-5.229 3.962-6.613.623-1.226 1.277-1.998 2.262-2.67.252-.173 2.01-1.121 3.908-2.108 4.18-2.174 7.222-3.944 10.184-5.924 10.62-7.103 18.285-15.743 20.17-22.738.383-1.422.459-3.72.161-4.88-.488-1.9-1.944-3.915-3.32-4.593-.804-.396-2.49-.4-3.223-.009-.799.427-2.067 1.703-2.656 2.672-.292.481-.855 1.675-1.25 2.653-1.313 3.247-2.89 5.494-6.083 8.667-4.428 4.399-9.985 8.238-16.847 11.638-3.828 1.896-5.96 2.79-9.241 3.872-5.565 1.835-11.55 2.702-16.028 2.322-6.17-.525-10.498-2.382-16.211-6.959-2.23-1.786-3.145-2.372-4.875-3.122-2.593-1.125-3.659-2.16-4.145-4.027-.466-1.79-.125-3.998 1.207-7.81 1.004-2.877 1.275-4.131 1.275-5.917 0-1.87-.434-3.867-1.582-7.285-.527-1.572-1.064-3.457-1.192-4.19-1.335-7.657 3.194-15.15 13.069-21.621 7.305-4.787 14.322-7.588 23.81-9.502l2.617-.529h27.537l2.025.383c7.885 1.491 15.393 4.595 20.757 8.581 1.803 1.34 4.84 4.255 6.243 5.99 3.676 4.55 6.767 10.777 8.213 16.544.983 3.919 1.222 5.943 1.225 10.359.002 3.678-.022 4.04-.426 6.162-2.256 11.842-5.197 17.381-20.464 38.55-8.737 12.113-11.574 16.807-13.693 22.662-1.61 4.444-2.197 7.917-2.84 16.79-.71 9.785-1.024 11.698-2.4 14.578-.878 1.836-2.005 3.4-3.52 4.885-3.37 3.3-7.548 4.794-14.141 5.055-7.902.314-13.983-1.649-24.272-7.832-3.087-1.854-6.78-4.246-14.227-9.212-18.352-12.238-24.438-15.802-33.416-19.565-5.695-2.387-8.074-3.103-13-3.916-3.764-.62-5.063-.69-7.46-.395-7.827.961-12 2.679-16.11 6.629-4.013 3.856-6.34 8.546-6.79 13.683-.449 5.118 1.2 9.814 4.705 13.41 1.914 1.963 2.783 2.506 10.4 6.499 10.227 5.361 17.516 9.484 21.867 12.37 1.978 1.311 2.706 1.989 2.706 2.52 0 1.807-4.694 4.136-10.897 5.407-2.618.536-7.27.733-10.22.432zm6.838-2.846c3.854-.29 6.898-.924 8.611-1.79 1.18-.597 1.473-.915 1.219-1.324-.778-1.254-9.196-6.135-23.097-13.392-2.71-1.414-5.516-2.96-6.237-3.435-1.783-1.175-4.564-3.946-5.665-5.644-1.496-2.31-2.379-4.536-2.86-7.217-.352-1.966-.249-6.164.2-8.087 2.181-9.345 9.507-16.518 19.391-18.988 10.788-2.695 20.97-.467 36.29 7.943 6.092 3.344 11.838 6.876 23.247 14.29 8.63 5.61 12.13 7.832 15.781 10.021 7.685 4.61 12.686 6.859 17.209 7.739 1.837.358 5.707.356 7.997-.003 8.547-1.34 11.795-3.925 13.485-10.728.661-2.662.958-4.975 1.586-12.365.77-9.05 1.006-10.481 2.438-14.778 2.59-7.777 5.129-12.023 15.598-26.101 2.367-3.183 4.915-6.667 5.662-7.743 8.851-12.744 13.235-23.092 13.702-32.34.479-9.498-2.727-19.651-8.436-26.722-1.279-1.584-4.215-4.414-5.848-5.636-8.55-6.4-20.904-9.828-35.438-9.834-6.443-.002-11.295.593-17.66 2.165-16.483 4.073-29.504 12.792-32.548 21.796-.251.742-.347 1.448-.397 2.93-.077 2.25-.042 2.398 1.654 7.065 1.371 3.773 1.506 4.539 1.42 8.088l-.07 2.883-.852 2.48c-1.102 3.207-1.469 4.656-1.485 5.861-.023 1.722.59 2.392 3.654 3.992 1.079.564 2.619 1.535 3.481 2.198.851.652 2.268 1.742 3.148 2.42 6.984 5.385 16.426 6.154 28.157 2.294 8.06-2.652 18.267-8.926 24.7-15.182 2.997-2.916 3.888-4.187 4.916-7.015.8-2.203 1.606-3.66 2.706-4.895 3.16-3.547 7.632-3.423 10.958.304 5.103 5.716 2.226 15.09-7.666 24.973-5.772 5.767-12.793 10.694-22.144 15.538-2.107 1.091-3.621 1.976-4.024 2.35-.392.365-1.023 1.283-1.603 2.33a83.623 83.623 0 0 1-2.308 3.833c-2.85 4.434-4.45 7.76-6.115 12.706-.541 1.608-1.385 3.874-1.875 5.034-1.198 2.835-1.297 3.373-1.134 6.156.278 4.742.151 6.008-.808 8.041-.697 1.477-2.375 3.194-3.794 3.88-4.617 2.232-9.581.37-11.82-4.433-.778-1.67-.965-2.76-1.09-6.36-.126-3.613-.154-3.717-1.243-4.752-.673-.64-10.418-7.714-15.304-11.11-16.712-11.616-28.437-16.98-39.585-18.112-2.645-.269-8.606-.108-11.29.303-11.484 1.763-21.255 7.752-28.609 17.538-5.363 7.137-8.388 14.421-10.194 24.549-.368 2.064-.416 2.698-.417 5.56-.001 2.737.05 3.509.34 5.036 1.487 7.846 4.36 14.316 8.928 20.108 1.573 1.995 5.202 5.588 7.108 7.037 3.95 3.005 7.837 5.102 12.193 6.58 5.415 1.838 9.998 2.407 15.837 1.965z"/>
        <path style="fill:#fff72a;stroke-width:1.9;-inkscape-stroke:none;fill-opacity:1" d="M116.778 244.233c-1.736-.207-6.49-1.17-8.516-1.724-5.007-1.373-10.736-4.345-14.938-7.75-1.563-1.267-4.788-4.42-6.073-5.938-4.187-4.948-7.348-10.825-9.104-16.927-1.375-4.775-1.938-9.939-1.581-14.484 1-12.74 7.18-25.814 16.405-34.708 2.182-2.104 3.73-3.354 6.222-5.027 6.01-4.035 11.91-6.35 18.862-7.404 2.117-.32 2.816-.352 7.665-.349 5.805.004 6.41.068 11.572 1.218 10.006 2.229 21.67 8.716 41.406 23.03 5.02 3.64 8.083 5.971 8.748 6.657.982 1.013 1.09 1.424 1.337 5.067.121 1.787.35 3.889.51 4.67.528 2.588 1.55 4.055 3.216 4.613.911.306 3.267.339 4.3.06 1.533-.414 2.82-1.63 3.484-3.29.49-1.224.486-4.48-.007-6.9-.214-1.054-.305-1.872-.24-2.167.057-.26.63-1.696 1.272-3.192.643-1.495 1.757-4.375 2.476-6.4 1.507-4.243 3.035-7.497 4.974-10.596 2.387-3.814 3.691-5.996 4.277-7.154.951-1.882 1.22-2.073 7.735-5.506 8.239-4.341 14.509-8.883 19.999-14.487 3.547-3.62 5.754-6.569 7.354-9.825 1.247-2.54 1.619-3.958 1.635-6.237.015-2.198-.2-2.954-1.322-4.641-1.345-2.024-2.939-2.751-4.826-2.203-.728.212-1.048.426-1.882 1.26-1.063 1.063-1.66 2.085-2.69 4.607-1.171 2.869-2.73 5.056-5.79 8.124-5.274 5.287-12.806 10.19-21.12 13.744-7.365 3.15-15.315 4.742-21.14 4.235-6.104-.53-10.454-2.373-15.949-6.756-2.223-1.772-3.1-2.335-5.252-3.37-3.058-1.468-4-2.625-4.2-5.156-.118-1.475.238-3.2 1.379-6.688 1.078-3.295 1.277-4.212 1.277-5.87 0-1.787-.358-3.447-1.5-6.963-1.31-4.029-1.568-5.415-1.459-7.832.09-1.961.406-3.413 1.152-5.275 1.77-4.422 5.978-8.992 11.877-12.899 7.281-4.823 14.746-7.798 24.347-9.706l2.27-.45h27.636l1.993.383c8.04 1.546 15.534 4.67 20.967 8.738 1.548 1.16 4.76 4.298 6.122 5.982 4.027 4.978 7.263 11.943 8.555 18.412.666 3.338.764 4.415.763 8.416-.002 3.342-.046 4.07-.345 5.691-2.199 11.929-5.187 17.63-20.097 38.345-9.135 12.692-11.724 16.922-13.95 22.793-1.705 4.5-2.414 8.554-3.029 17.335-.27 3.852-.604 7.518-.836 9.168-.56 3.975-2.225 7.38-4.932 10.088-3.376 3.375-7.73 4.957-14.296 5.192-7.936.284-14.081-1.685-24.1-7.723-3.124-1.882-3.743-2.283-14.224-9.214-13.373-8.843-17.441-11.427-22.244-14.127-7.342-4.13-16.238-7.865-21.116-8.868-6.935-1.426-9.98-1.437-16.127-.058-4.132.927-7.5 2.709-10.553 5.583-3.157 2.972-5.28 6.506-6.345 10.56-.384 1.462-.466 2.096-.528 4.11-.047 1.516-.007 2.8.11 3.532.567 3.54 2.418 7.004 5.086 9.52 1.708 1.612 2.788 2.261 10.322 6.21 12.314 6.453 21.545 11.834 23.558 13.731.892.84.693 1.658-.662 2.73-1.858 1.468-6.527 3.118-10.846 3.832-1.61.266-7.478.414-9.044.228zm6.612-2.869c6.38-.47 11.068-2.03 9.917-3.303-1.243-1.373-10.435-6.67-22.165-12.771-7.145-3.717-8.062-4.312-10.453-6.785-2.766-2.86-4.465-6.167-5.124-9.974-.303-1.746-.208-6.216.166-7.89.424-1.895 1.095-3.746 2.04-5.636 3.55-7.093 10.347-12.107 18.747-13.829 10.688-2.19 20.344.166 35.863 8.753 5.752 3.183 11.234 6.57 22.86 14.122 14.281 9.277 19.627 12.473 24.837 14.85 6.43 2.932 10.872 3.507 17.345 2.245 4.163-.812 6.403-1.817 8.33-3.738 3.067-3.057 3.935-6.369 5.022-19.172.739-8.702 1.007-10.347 2.341-14.373 1.838-5.542 3.419-8.738 7.092-14.333 2.162-3.293 3.34-4.945 8.152-11.422 4.534-6.104 5.646-7.649 7.464-10.37 6.975-10.442 10.757-18.91 12.028-26.927.385-2.425.382-8.53-.005-10.872-2.478-15.025-10.277-24.914-23.922-30.334-9.595-3.812-22.905-5.298-34.414-3.842-11.961 1.512-24.1 6.14-32.346 12.333-1.996 1.499-4.813 4.257-6.116 5.987-1.246 1.655-2.318 3.654-2.82 5.26-.302.966-.351 1.43-.343 3.232.009 2.029.028 2.158.552 3.607 2.561 7.085 2.576 7.15 2.485 11.095l-.066 2.882-.783 2.254c-1.065 3.064-1.52 4.874-1.52 6.044 0 1.787.516 2.364 3.606 4.023 2.09 1.123 2.93 1.692 5.34 3.62 2.05 1.64 3.544 2.625 5.133 3.384 6.287 3.005 14.206 3.07 23.493.194 8.559-2.651 20.171-9.844 26.474-16.397 2.26-2.349 2.948-3.424 4.022-6.275 1.792-4.762 4.538-7.299 7.89-7.29 2.667.009 5.58 1.999 7.08 4.837 1.8 3.407 1.437 7.711-1.063 12.598-4.65 9.09-15.17 18.2-29.854 25.856-4.581 2.388-4.424 2.25-6.207 5.402-.397.702-1.369 2.292-2.158 3.532-2.617 4.108-4.222 7.47-5.894 12.345-.575 1.674-1.407 3.91-1.85 4.968-1.345 3.215-1.304 2.891-1.141 8.913.08 2.98-.02 3.612-.87 5.41-.4.85-.812 1.408-1.673 2.267-1.871 1.867-3.872 2.64-6.478 2.505-3.16-.165-5.677-1.873-7.294-4.95-.882-1.678-1.12-2.924-1.26-6.585-.137-3.607-.217-3.94-1.16-4.832-.542-.512-8.646-6.42-13.823-10.078-14.284-10.092-25.263-15.797-34.927-18.15-5.572-1.357-12.652-1.584-18.486-.593-10.95 1.86-20.79 8.138-28.018 17.872-3.093 4.165-5.838 9.518-7.554 14.729-1.061 3.221-2.244 8.7-2.613 12.098-.635 5.859 1.047 13.592 4.429 20.365 4.426 8.865 11.955 16.056 20.83 19.896 6.404 2.77 12.064 3.744 18.862 3.243z"/>
        <path style="fill:#fff72a;stroke-width:1.9;-inkscape-stroke:none;fill-opacity:1" d="M155.159 233.957c-16.507-10.926-23.376-15.168-29.624-18.295-2.506-1.254-3.789-1.833-7.784-3.514-2.102-.884-3.74-1.735-4.812-2.5-.946-.677-1.827-1.656-2.154-2.395-.444-1.003-.406-2.195.112-3.54.742-1.922 2.708-4.59 4.307-5.846.95-.746 2.315-1.494 3.408-1.868 4.386-1.502 10.092-.792 17.47 2.174 5.862 2.356 12.534 6.017 20.697 11.357 2.204 1.441 4.319 2.885 8.071 5.509 8.5 5.944 13.566 9.3 18.471 12.237 8.125 4.866 14.104 7.437 20.165 8.674l.877.18-4.842.004-4.843.005-1.135-.498c-4.316-1.892-9.121-4.496-14.871-8.058-4.103-2.541-7.697-4.904-14.347-9.43-18.424-12.542-24.834-16.206-32.998-18.861-2.612-.85-4.276-1.145-6.456-1.145-2.443 0-4.531.439-6.442 1.355-1.504.72-2.727 1.718-3.484 2.84-.342.506-.828 1.526-1.051 2.207-.148.452-.175.612-.178 1.063-.003.47.013.567.14.837.286.611.928 1.145 2.063 1.715.749.376 1.049.506 3.027 1.31 8.007 3.255 15.875 7.646 28.481 15.896 1.068.698 2.65 1.747 10.547 6.993l5.686 3.776H158.453z"/>
        <path style="fill:#fff72a;stroke-width:1.9;-inkscape-stroke:none;fill-opacity:1" d="M156.592 234.91c-18.445-12.205-24.802-16.136-31.35-19.386-2.194-1.09-3.501-1.687-5.897-2.696-3.253-1.37-4.473-1.946-5.604-2.647-1.46-.905-2.532-1.968-2.958-2.933-.44-.994-.399-2.256.115-3.553.586-1.478 1.884-3.439 3.159-4.773 1.496-1.565 3.514-2.724 5.66-3.251 2.66-.653 5.86-.567 9.405.254 6.366 1.474 14.068 5.073 23.725 11.086 3.631 2.262 6.726 4.329 11.903 7.953 8.659 6.06 14.182 9.712 19.043 12.59 7.926 4.692 13.616 7.124 19.569 8.366l1.001.21-4.85.004-4.85.005-1.095-.483c-4.356-1.921-8.795-4.317-14.471-7.808-3.96-2.435-8.076-5.133-14.427-9.456-18.784-12.787-25.41-16.574-33.502-19.147-2.738-.87-3.907-1.069-6.297-1.069-1.34 0-1.649.016-2.365.123-2.961.443-5.4 1.591-6.937 3.266-.683.744-1.25 1.752-1.656 2.947-.17.5-.194.634-.197 1.1-.003.465.013.568.134.824.443.943 1.428 1.54 4.857 2.939 2.916 1.19 4.516 1.91 7.12 3.2 5.755 2.851 11.905 6.477 20.67 12.184 1.252.814 15.143 10.023 16.791 11.13l.371.25h-5.208zM209.677 119.44c-2.876-.22-5.258-1.673-6.417-3.914-.67-1.294-.875-2.097-.937-3.674-.093-2.388.41-4.494 1.672-7.014.825-1.646 1.805-3.022 3.131-4.395 1.757-1.82 3.331-2.876 5.262-3.533.857-.292 1.2-.35 2.284-.389 1.552-.055 2.371.11 3.666.74.737.36 1.081.619 1.87 1.41.813.813 1.047 1.13 1.463 1.974.719 1.46.933 2.386.996 4.308.066 1.98-.12 3.282-.723 5.087-.776 2.322-1.955 4.238-3.662 5.95-.952.956-2.378 2.018-3.398 2.531-1.433.721-3.354 1.06-5.207.918zm2.757-2.963c4.302-1.1 7.483-6.106 7.255-11.416-.123-2.865-1.1-4.73-2.912-5.56-1.566-.716-3.792-.298-5.702 1.073-.757.543-2.284 2.087-2.904 2.936-2.605 3.567-3.64 8.033-2.43 10.482 1.062 2.148 3.896 3.2 6.693 2.485z"/>
        <path style="fill:#fff72a;stroke-width:1.9;-inkscape-stroke:none;fill-opacity:1" d="M206.502 268.57c-5.374-.42-11.069-.943-13.02-1.197-13.303-1.728-22.93-5.543-37.197-14.742-1.312-.845-2.747-1.704-3.188-1.908-1.287-.593-1.848-.472-5.36 1.16-11.043 5.134-15.929 6.524-24.347 6.925-8.972.427-17.392-.928-25.249-4.063-12.95-5.167-23.606-14.915-30.148-27.577-3.395-6.57-5.397-13.112-6.395-20.891-.338-2.63-.386-10.354-.08-12.925.909-7.648 2.8-14.105 6.12-20.891 3.111-6.36 7.195-12.459 11.5-17.171l.72-.789h4.036l-1.642 1.616c-6.546 6.44-11.564 14.24-14.578 22.656-1.697 4.74-3.17 11.45-3.422 15.577-.376 6.177-.121 11.56.756 15.997 1.284 6.496 3.097 11.542 5.99 16.67 4.575 8.113 10.564 14.56 18.276 19.673 10.19 6.756 20.315 9.831 31.32 9.513 4.616-.133 7.727-.565 12.115-1.68 4.925-1.253 8.513-2.596 14.052-5.26 3.902-1.877 4.293-2.031 5.13-2.031.982 0 1.932.482 5.335 2.71 7.902 5.172 12.952 7.927 18.56 10.123 8.1 3.172 15.22 4.519 28.387 5.37 3.808.245 23.718.347 28.33.145 8.41-.37 15.94-1.906 21.463-4.379 5.343-2.392 9.329-5.148 13.563-9.38 10.45-10.442 17.587-26.328 16.748-37.278-.637-8.315-4.01-17.123-8.927-23.305-3.984-5.012-9.079-8.934-16.121-12.41-3.147-1.554-3.894-2.048-4.198-2.775-.423-1.013.184-2.202 2.967-5.802 6.27-8.113 7.571-9.83 9.562-12.623l2.216-3.11 1.777-.009 1.778-.008-1.012 1.466c-1.804 2.612-4.687 6.475-8.384 11.234-4.832 6.22-5.206 6.75-5.206 7.38 0 .723.355 1.01 2.49 2.018 14.082 6.646 23.331 19.134 25.486 34.412.297 2.103.256 8.623-.067 10.717-.807 5.238-2.451 10.05-5.353 15.665-4.79 9.272-10.828 16.612-17.626 21.432-7.851 5.567-14.651 7.9-27.324 9.376-3.545.412-25.753.687-29.833.369z"/>
        <path style="fill:#fff72a;stroke-width:1.9;-inkscape-stroke:none;fill-opacity:1" d="M108.436 303.736c-19.105-.136-21.775-.225-24.573-.82-15.504-3.292-29.277-13.641-36.87-27.704-2.997-5.551-4.515-10.097-6.004-17.986l-.398-2.104-.046-50.31L40.5 154.5h2.26v30.622c.003 31.723.203 61.84.447 67.114.144 3.107.372 4.552 1.289 8.145 1.81 7.096 5.168 14.36 9.2 19.901 7.155 9.833 16.76 16.45 27.927 19.242 5.414 1.353 6.119 1.421 17.12 1.646 18.462.379 156.38.276 158.785-.117.537-.088 2.458-.368 4.268-.623 4.103-.576 6.7-1.152 9.784-2.168 10.557-3.478 18.905-9.864 25.257-19.319 4.471-6.655 7.114-13.672 8.882-23.586.37-2.077.396-2.57.507-9.554.065-4.05.159-18.591.21-32.313.05-13.722.132-32.608.183-41.97l.091-17.02h2.416l-.113 42.42c-.062 23.331-.167 45.802-.232 49.935-.13 8.153-.196 8.872-1.279 13.752-2.408 10.858-7.318 19.993-14.994 27.897-7.89 8.123-17.077 12.572-30.396 14.72-1.118.18-3.374.277-8.793.38-9.822.187-122.744.29-144.882.131zM299.751 62.991c-2.301-4.198-5.333-8.17-9.16-12.002-7.827-7.834-15.663-11.9-26.566-13.785-3.133-.541-2.987-.532-9.692-.61-3.368-.039-19.609-.094-36.089-.122l-29.965-.05v-2.468l10.014.046c40.684.188 59.702.4 64.84.72 1.29.081 2.745.336 4.952.869 11.735 2.833 21.674 9.233 29.043 18.702 1.812 2.329 3.682 5.266 5.253 8.25l.505.958h-2.857z"/>
        <path style="fill:#fff72a;stroke-width:1.9;-inkscape-stroke:none;fill-opacity:1" d="M306.608 115.068c-.063-20.111-.145-27.075-.346-29.1-1.35-13.628-5.216-23.222-12.905-32.03-1.022-1.172-3.757-3.947-4.988-5.06-7.488-6.782-15.157-10.3-26.04-11.949-1.933-.292-3.826-.323-25.017-.405-10.539-.04-19.17-.075-19.18-.076-.011-.001-.02-.531-.02-1.179v-1.176l8.135.051c18.87.12 33.44.347 36.95.578.78.052 1.645.173 2.632.37 7.548 1.5 14.436 4.443 20.464 8.745 5.108 3.645 9.602 8.318 13.09 13.612 4.742 7.198 7.73 15.196 9.166 24.536.174 1.13.198 1.572.265 4.997.08 4.074.225 27.973.225 37.179v5.692h-2.386z"/>
        <path style="fill:#fff72a;stroke-width:1.9;-inkscape-stroke:none;fill-opacity:1" d="M306.632 133.441c-.004-16.383-.132-42.492-.22-44.733-.104-2.689-.394-5.389-.911-8.484-1.676-10.023-5.278-18.087-11.28-25.259-3.094-3.696-7.307-7.63-10.725-10.014l-.72-.502 2.163-.02 2.164-.02.617.47c2.75 2.09 5.795 5.022 8.158 7.85 6.64 7.95 10.992 17.996 12.671 29.256.179 1.196.203 1.64.268 4.922.106 5.4.222 28.32.223 43.867v13.733H306.635z"/>
        <path style="fill:#fff72a;stroke-width:1.9;-inkscape-stroke:none;fill-opacity:1" d="M306.623 140.88c.034-11.577-.12-49.26-.213-51.944-.102-2.959-.437-6.007-1.022-9.318-1.656-9.367-4.968-16.901-10.437-23.747-1.219-1.524-2.36-2.802-4.013-4.488l-1.456-1.486h3.864l.547.583c6.956 7.4 11.744 16.916 14.017 27.86.416 2.001.757 4.25.831 5.486.139 2.294.229 15.685.275 40.86l.046 25.306h-2.466z"/>
        <path style="fill:#fff72a;stroke-width:1.9;-inkscape-stroke:none;fill-opacity:1" d="M306.598 144.413c.058-11.295-.078-51.134-.188-54.914-.247-8.5-2.083-16.784-5.236-23.633-1.638-3.556-4.174-7.563-6.684-10.558a20.678 20.678 0 0 1-.656-.808c-.046-.074.308-.094 1.675-.094h1.733l.574.77c.822 1.103 2.455 3.587 3.222 4.904 3.789 6.495 6.39 14.118 7.55 22.123.125.857.172 1.713.226 4.096.1 4.435.228 30.685.247 50.712l.016 17.49H306.546zM256.36 177.39c-2.002-1.18-2-2.209.011-5.042.577-.812.933-1.274 4.687-6.087 12.525-16.053 17.075-24.21 19.912-35.694 1.478-5.982 1.937-9.567 1.938-15.142.004-11.534-2.297-20-7.652-28.149-1.89-2.876-4.132-5.568-6.866-8.243l-1.437-1.407h4.178l.757.77c5.693 5.79 9.867 13.263 12.017 21.511.381 1.466 1.228 5.603 1.453 7.101.977 6.51.603 13.967-1.08 21.567-1.632 7.372-2.793 10.744-5.856 17.021-3.274 6.706-6.365 11.276-15.706 23.22-3.76 4.807-4.109 5.338-3.977 6.038.098.526.494.789 2.9 1.925.858.405 1.619.782 1.692.837.111.084-.39.1-3.138.103l-3.27.002z"/>
        <path style="fill:#fff72a;stroke-width:1.9;-inkscape-stroke:none;fill-opacity:1" d="M235.704 177.23c.352-.778 1.372-2.663 2.193-4.055 2.341-3.968 4.93-7.715 10.049-14.54 5.991-7.99 8.557-11.696 11.4-16.458 5.338-8.942 8.252-16.863 8.736-23.746.099-1.407.098-4.691-.001-6.087-.315-4.43-1.736-9.818-3.737-14.171-4.017-8.738-11.074-15.04-21.082-18.828-1.137-.43-3.638-1.247-4.597-1.502l-.676-.18 4.294-.019 4.294-.019.85.383c8.798 3.97 14.659 9.575 18.932 18.106 2.08 4.15 3.287 7.688 4.051 11.871.501 2.743.706 4.98.706 7.74 0 2.255-.083 3.214-.485 5.561-1.573 9.182-4.177 15.14-11.277 25.798-2.332 3.502-4.125 6.053-9.042 12.865-5.11 7.08-7.509 10.583-9.375 13.69-.9 1.5-2.234 3.903-2.234 4.026 0 .03-.725.056-1.611.056h-1.611z"/>
        <path style="fill:#fff72a;stroke-width:1.9;-inkscape-stroke:none;fill-opacity:1" d="M235.654 177.313c.227-.513 1.426-2.764 1.935-3.634 2.573-4.39 4.849-7.681 11.181-16.172 4.392-5.888 5.393-7.284 7.418-10.34 7.179-10.835 10.905-19.623 11.835-27.91.155-1.375.13-6.66-.037-8.04-.726-6.003-2.692-11.885-5.553-16.614-4.511-7.456-11.604-12.793-21.213-15.963-.91-.3-2.007-.642-2.44-.76l-.785-.216 4.288-.02 4.288-.019.781.346c.43.19 1.407.662 2.172 1.048 8.582 4.331 14.354 10.768 18.428 20.55 2.065 4.955 3.155 10.483 3.164 16.044.005 2.742-.13 3.978-.821 7.512-1.594 8.147-4.38 14.204-11.218 24.387-2.285 3.403-3.994 5.828-8.868 12.587-5.764 7.992-8.011 11.323-10.126 15.01-.42.732-.911 1.62-1.091 1.971l-.327.64h-3.192z"/>
        <path style="fill:#fff72a;stroke-width:1.9;-inkscape-stroke:none;fill-opacity:1" d="M202.203 177.59c.021-.073.309-.842.639-1.71s.86-2.339 1.18-3.269c.858-2.504 1.401-3.83 2.339-5.71.876-1.758 1.961-3.623 3.403-5.85 1.278-1.974 2.461-3.973 3.16-5.34 1.106-2.166 1.11-2.169 7.105-5.288 5.696-2.964 10.171-5.813 14.443-9.195 3.66-2.899 7.446-6.602 9.926-9.71 2.478-3.107 4.362-6.542 5.047-9.202.455-1.767.473-4.096.041-5.418-.484-1.484-1.617-3.089-2.681-3.8-1.215-.811-2.864-.822-4.106-.028-.55.352-1.458 1.281-1.952 2-.467.678-1.162 2.091-1.582 3.22-1.582 4.246-5.57 8.796-11.772 13.429-7.78 5.812-17.702 10.418-26.15 12.14-1.99.405-4.948.798-6.012.798h-.417l.02-1.447.02-1.446.376-.018c3.996-.185 9.453-1.403 13.715-3.062 9.146-3.56 20.079-10.978 25.158-17.07 1.091-1.309 1.76-2.52 2.382-4.32.744-2.146 1.78-3.957 2.987-5.22.814-.852 1.453-1.344 2.27-1.749 2.617-1.296 5.422-.703 7.916 1.676 1.54 1.47 2.488 3.147 2.926 5.175.184.85.183 3.323-.002 4.305-1.237 6.588-6.792 14.103-15.683 21.216-4.677 3.74-10.62 7.534-16.081 10.263-1.544.772-3.257 1.705-3.804 2.074-.671.452-1.198 1.04-1.618 1.804a78.888 78.888 0 0 1-2.751 4.602c-1.426 2.208-2.222 3.58-3.17 5.46-1.26 2.502-2.285 4.976-3.002 7.252-.17.537-.518 1.56-.774 2.273l-.465 1.296H203.7c-1.427 0-1.532-.009-1.496-.131zM202.238 253.544c-13.53-1.537-20.138-3.326-27.9-7.555-4.14-2.256-6.831-3.952-21.411-13.499-20.041-13.122-24.868-15.938-34.007-19.843-4.338-1.853-6.691-3.296-7.728-4.74-.557-.775-.66-1.112-.66-2.148 0-2.844 3.363-7.488 6.549-9.043 2.177-1.063 3.675-1.386 6.425-1.386 5.235 0 10.708 1.651 18.581 5.606 6.31 3.17 12.516 6.993 21.74 13.393 18.477 12.821 26.152 17.325 34.277 20.113 5.165 1.773 9.73 2.448 15.389 2.276 4.074-.124 6.424-.468 9.68-1.418 10.51-3.067 17.85-10.067 20.63-19.672 1.094-3.784 1.405-6.712 1.793-16.897.32-8.443.6-10.025 1.827-10.333.828-.208 2.254.055 4.66.86 8.63 2.888 14.927 9.048 17.616 17.23.955 2.907 1.22 4.534 1.338 8.184.095 2.94.042 3.924-.328 6.09-1.33 7.797-5.843 16.111-12.152 22.39-3.789 3.771-7.363 5.973-12.374 7.624-5.458 1.798-9.333 2.544-14.508 2.794-4.998.24-27.262.22-29.437-.026zm21.254-2.314c12.04-.48 15.28-.844 19.853-2.23 8.435-2.558 14.621-7.567 19.672-15.929 3.476-5.754 5.05-10.7 5.258-16.516.219-6.116-1.065-10.85-4.215-15.543-1.264-1.884-4.224-4.742-6.42-6.2-2.891-1.919-7.655-3.845-8.38-3.388-.567.358-.67 1.162-1.003 7.838-.408 8.195-.828 11.698-1.928 16.078-3.126 12.44-10.206 19.515-22.73 22.712-5.123 1.307-7.269 1.587-12.116 1.583-4.541-.004-6.718-.276-10.308-1.29-9.19-2.596-18.059-7.47-37.302-20.497-16.513-11.179-23.365-15.205-30.1-17.685-4.252-1.566-5.863-1.92-8.796-1.93-3.813-.013-6.684.906-8.885 2.844-1.202 1.057-2.294 3.154-2.312 4.437-.021 1.58.755 2.124 6.415 4.495 8.738 3.662 16.089 7.987 36.133 21.258 13.552 8.974 16.2 10.613 21.053 13.033 8.772 4.375 15.038 5.793 29.214 6.61 3.156.183 5.978.362 6.27.4 1.172.15 5.696.117 10.627-.08z"/>
        <path style="fill:#fff72a;stroke-width:1.9;-inkscape-stroke:none;fill-opacity:1" d="M202.132 253.545c-7.019-.739-14.387-2.12-18.43-3.457-7.287-2.407-10.045-4-33.096-19.106-17.148-11.237-22.482-14.326-31.474-18.224-4.57-1.98-6.972-3.447-7.965-4.86-1.534-2.183-.33-5.62 3.236-9.24 1.422-1.443 3.866-2.728 5.95-3.128 2.253-.433 6.723-.154 9.619.6 8.953 2.33 18.556 7.572 35.92 19.604 19.4 13.443 27.806 17.984 37.196 20.09 6.128 1.375 13.629 1.22 19.592-.405 9.434-2.57 16.897-8.86 20.148-16.98 1.729-4.317 2.214-7.557 2.654-17.71.35-8.09.455-9.558.775-10.777.312-1.186.86-1.636 1.99-1.636 1.33 0 5.628 1.458 8.21 2.783 14.127 7.257 18.726 24.26 10.818 39.994-3.692 7.346-9.482 13.878-15.2 17.15-4.855 2.778-13.06 4.955-20.08 5.329-4.543.242-27.506.22-29.863-.027zm26.036-2.537c10.194-.506 14.536-1.323 19.69-3.704 7.012-3.24 12.867-9.31 17.02-17.648 7.136-14.325 3.004-29.757-9.693-36.201-2.69-1.366-5.298-2.305-5.83-2.101-.581.223-.763 1.575-1.104 8.23-.184 3.563-.476 7.58-.65 8.924-1.927 14.84-7.85 23.577-18.975 27.992-2.226.884-7.36 2.223-10.554 2.753-3.55.59-10.238.542-13.426-.095-10.078-2.016-19.453-6.876-39.816-20.643-18.239-12.33-24.323-15.892-31.788-18.61-3.411-1.242-5.377-1.635-8.133-1.627-4.045.013-6.859.956-8.963 3.003-1.21 1.177-2.128 3.033-2.128 4.304 0 1.502.853 2.092 6.377 4.405 1.461.612 4.426 2.006 6.589 3.098 7.133 3.6 12.655 6.997 29.544 18.172 6.488 4.293 13.183 8.633 14.878 9.645 10.727 6.405 18.151 8.732 30.925 9.693 11.536.867 15.543.93 26.037.41z"/>
    </g>
</svg>
